<?xml version="1.0" encoding="UTF-8" standalone="no"?>
<!DOCTYPE svg PUBLIC "-//W3C//DTD SVG 1.1//EN"
 "http://www.w3.org/Graphics/SVG/1.1/DTD/svg11.dtd">
<!-- Generated by graphviz version 2.40.1 (20161225.0304)
 -->
<!-- Title: strobe Pages: 1 -->
<svg width="3173pt" height="4364pt"
 viewBox="0.00 0.00 3173.11 4364.00" xmlns="http://www.w3.org/2000/svg" xmlns:xlink="http://www.w3.org/1999/xlink">
<g id="graph0" class="graph" transform="scale(1 1) rotate(0) translate(4 4360)">
<title>strobe</title>
<polygon fill="#ffffff" stroke="transparent" points="-4,4 -4,-4360 3169.11,-4360 3169.11,4 -4,4"/>
<!-- incl1 -->
<g id="node1" class="node">
<title>incl1</title>
<polygon fill="none" stroke="#000000" points="1578.33,-4356 -.11,-4356 -.11,-3968 1578.33,-3968 1578.33,-4356"/>
<text text-anchor="middle" x="789.11" y="-4207" font-family="Arial" font-size="150.00" fill="#000000">All transplant recipients</text>
<text text-anchor="middle" x="789.11" y="-4027" font-family="Arial" font-size="150.00" fill="#000000">(n = 64)</text>
</g>
<!-- mid1 -->
<!-- incl1&#45;&gt;mid1 -->
<g id="edge1" class="edge">
<title>incl1&#45;&gt;mid1</title>
<path fill="none" stroke="#000000" d="M789.11,-3967.7469C789.11,-3830.8838 789.11,-3671.0789 789.11,-3666.1185"/>
</g>
<!-- incl2 -->
<g id="node2" class="node">
<title>incl2</title>
<polygon fill="none" stroke="#000000" points="1509.11,-3364 69.11,-3364 69.11,-2976 1509.11,-2976 1509.11,-3364"/>
<text text-anchor="middle" x="789.11" y="-3215" font-family="Arial" font-size="150.00" fill="#000000">Age 18–65</text>
<text text-anchor="middle" x="789.11" y="-3035" font-family="Arial" font-size="150.00" fill="#000000">(n = 63)</text>
</g>
<!-- mid2 -->
<!-- incl2&#45;&gt;mid2 -->
<g id="edge4" class="edge">
<title>incl2&#45;&gt;mid2</title>
<path fill="none" stroke="#000000" d="M789.11,-2975.7469C789.11,-2838.8838 789.11,-2679.0789 789.11,-2674.1185"/>
</g>
<!-- incl3 -->
<g id="node3" class="node">
<title>incl3</title>
<polygon fill="none" stroke="#000000" points="1509.11,-2372 69.11,-2372 69.11,-1984 1509.11,-1984 1509.11,-2372"/>
<text text-anchor="middle" x="789.11" y="-2223" font-family="Arial" font-size="150.00" fill="#000000">CMV positive</text>
<text text-anchor="middle" x="789.11" y="-2043" font-family="Arial" font-size="150.00" fill="#000000">(n = 39)</text>
</g>
<!-- mid3 -->
<!-- incl3&#45;&gt;mid3 -->
<g id="edge7" class="edge">
<title>incl3&#45;&gt;mid3</title>
<path fill="none" stroke="#000000" d="M789.11,-1983.7469C789.11,-1846.8838 789.11,-1687.0789 789.11,-1682.1185"/>
</g>
<!-- incl4 -->
<g id="node4" class="node">
<title>incl4</title>
<polygon fill="none" stroke="#000000" points="1509.11,-1380 69.11,-1380 69.11,-992 1509.11,-992 1509.11,-1380"/>
<text text-anchor="middle" x="789.11" y="-1231" font-family="Arial" font-size="150.00" fill="#000000">Donor CMV positive</text>
<text text-anchor="middle" x="789.11" y="-1051" font-family="Arial" font-size="150.00" fill="#000000">(n = 28)</text>
</g>
<!-- mid4 -->
<!-- incl4&#45;&gt;mid4 -->
<g id="edge10" class="edge">
<title>incl4&#45;&gt;mid4</title>
<path fill="none" stroke="#000000" d="M789.11,-991.7469C789.11,-854.8838 789.11,-695.0789 789.11,-690.1185"/>
</g>
<!-- incl5 -->
<g id="node5" class="node">
<title>incl5</title>
<polygon fill="none" stroke="#000000" points="1509.11,-388 69.11,-388 69.11,0 1509.11,0 1509.11,-388"/>
<text text-anchor="middle" x="789.11" y="-239" font-family="Arial" font-size="150.00" fill="#000000">No prior transplant</text>
<text text-anchor="middle" x="789.11" y="-59" font-family="Arial" font-size="150.00" fill="#000000">(n = 23)</text>
</g>
<!-- excl1 -->
<g id="node6" class="node">
<title>excl1</title>
<polygon fill="none" stroke="#000000" stroke-dasharray="5,2" points="3165.11,-3860 1005.11,-3860 1005.11,-3472 3165.11,-3472 3165.11,-3860"/>
<text text-anchor="middle" x="2085.11" y="-3711" font-family="Arial" font-size="150.00" fill="#000000">Excluded: Outside 18–65</text>
<text text-anchor="middle" x="2085.11" y="-3531" font-family="Arial" font-size="150.00" fill="#000000">(n = 1)</text>
</g>
<!-- excl2 -->
<g id="node7" class="node">
<title>excl2</title>
<polygon fill="none" stroke="#000000" stroke-dasharray="5,2" points="3165.11,-2868 1005.11,-2868 1005.11,-2480 3165.11,-2480 3165.11,-2868"/>
<text text-anchor="middle" x="2085.11" y="-2719" font-family="Arial" font-size="150.00" fill="#000000">Excluded: CMV negative</text>
<text text-anchor="middle" x="2085.11" y="-2539" font-family="Arial" font-size="150.00" fill="#000000">(n = 24)</text>
</g>
<!-- excl3 -->
<g id="node8" class="node">
<title>excl3</title>
<polygon fill="none" stroke="#000000" stroke-dasharray="5,2" points="3165.11,-1876 1005.11,-1876 1005.11,-1488 3165.11,-1488 3165.11,-1876"/>
<text text-anchor="middle" x="2085.11" y="-1727" font-family="Arial" font-size="150.00" fill="#000000">Excluded: Donor CMV negative</text>
<text text-anchor="middle" x="2085.11" y="-1547" font-family="Arial" font-size="150.00" fill="#000000">(n = 11)</text>
</g>
<!-- excl4 -->
<g id="node9" class="node">
<title>excl4</title>
<polygon fill="none" stroke="#000000" stroke-dasharray="5,2" points="3165.11,-884 1005.11,-884 1005.11,-496 3165.11,-496 3165.11,-884"/>
<text text-anchor="middle" x="2085.11" y="-735" font-family="Arial" font-size="150.00" fill="#000000">Excluded: Prior transplant</text>
<text text-anchor="middle" x="2085.11" y="-555" font-family="Arial" font-size="150.00" fill="#000000">(n = 5)</text>
</g>
<!-- mid1&#45;&gt;incl2 -->
<g id="edge2" class="edge">
<title>mid1&#45;&gt;incl2</title>
<path fill="none" stroke="#000000" d="M789.11,-3665.9097C789.11,-3661.672 789.11,-3509.1491 789.11,-3374.3743"/>
<polygon fill="#000000" stroke="#000000" points="792.6101,-3374.292 789.11,-3364.292 785.6101,-3374.292 792.6101,-3374.292"/>
</g>
<!-- mid1&#45;&gt;excl1 -->
<g id="edge3" class="edge">
<title>mid1&#45;&gt;excl1</title>
<path fill="none" stroke="#666666" d="M789.4264,-3666C857.8672,-3666 926.3079,-3666 994.7486,-3666"/>
<polygon fill="#666666" stroke="#666666" points="994.8465,-3669.5001 1004.8465,-3666 994.8464,-3662.5001 994.8465,-3669.5001"/>
</g>
<!-- mid2&#45;&gt;incl3 -->
<g id="edge5" class="edge">
<title>mid2&#45;&gt;incl3</title>
<path fill="none" stroke="#000000" d="M789.11,-2673.9097C789.11,-2669.672 789.11,-2517.1491 789.11,-2382.3743"/>
<polygon fill="#000000" stroke="#000000" points="792.6101,-2382.292 789.11,-2372.292 785.6101,-2382.292 792.6101,-2382.292"/>
</g>
<!-- mid2&#45;&gt;excl2 -->
<g id="edge6" class="edge">
<title>mid2&#45;&gt;excl2</title>
<path fill="none" stroke="#666666" d="M789.4264,-2674C857.8672,-2674 926.3079,-2674 994.7486,-2674"/>
<polygon fill="#666666" stroke="#666666" points="994.8465,-2677.5001 1004.8465,-2674 994.8464,-2670.5001 994.8465,-2677.5001"/>
</g>
<!-- mid3&#45;&gt;incl4 -->
<g id="edge8" class="edge">
<title>mid3&#45;&gt;incl4</title>
<path fill="none" stroke="#000000" d="M789.11,-1681.9097C789.11,-1677.672 789.11,-1525.1491 789.11,-1390.3743"/>
<polygon fill="#000000" stroke="#000000" points="792.6101,-1390.292 789.11,-1380.292 785.6101,-1390.292 792.6101,-1390.292"/>
</g>
<!-- mid3&#45;&gt;excl3 -->
<g id="edge9" class="edge">
<title>mid3&#45;&gt;excl3</title>
<path fill="none" stroke="#666666" d="M789.4264,-1682C857.8672,-1682 926.3079,-1682 994.7486,-1682"/>
<polygon fill="#666666" stroke="#666666" points="994.8465,-1685.5001 1004.8465,-1682 994.8464,-1678.5001 994.8465,-1685.5001"/>
</g>
<!-- mid4&#45;&gt;incl5 -->
<g id="edge11" class="edge">
<title>mid4&#45;&gt;incl5</title>
<path fill="none" stroke="#000000" d="M789.11,-689.9097C789.11,-685.672 789.11,-533.1491 789.11,-398.3743"/>
<polygon fill="#000000" stroke="#000000" points="792.6101,-398.292 789.11,-388.292 785.6101,-398.292 792.6101,-398.292"/>
</g>
<!-- mid4&#45;&gt;excl4 -->
<g id="edge12" class="edge">
<title>mid4&#45;&gt;excl4</title>
<path fill="none" stroke="#666666" d="M789.4264,-690C857.8672,-690 926.3079,-690 994.7486,-690"/>
<polygon fill="#666666" stroke="#666666" points="994.8465,-693.5001 1004.8465,-690 994.8464,-686.5001 994.8465,-693.5001"/>
</g>
</g>
</svg>

