<?xml version="1.0" encoding="UTF-8" standalone="no"?>
<!DOCTYPE svg PUBLIC "-//W3C//DTD SVG 1.1//EN"
 "http://www.w3.org/Graphics/SVG/1.1/DTD/svg11.dtd">
<!-- Generated by graphviz version 2.40.1 (20161225.0304)
 -->
<!-- Title: strobe Pages: 1 -->
<svg width="2384pt" height="1577pt"
 viewBox="0.00 0.00 2384.00 1576.80" xmlns="http://www.w3.org/2000/svg" xmlns:xlink="http://www.w3.org/1999/xlink">
<g id="graph0" class="graph" transform="scale(1 1) rotate(0) translate(4 1572.8)">
<title>strobe</title>
<polygon fill="#ffffff" stroke="transparent" points="-4,4 -4,-1572.8 2380,-1572.8 2380,4 -4,4"/>
<!-- incl1 -->
<g id="node1" class="node">
<title>incl1</title>
<polygon fill="none" stroke="#000000" points="1728,-1568.6013 648,-1568.6013 648,-1507.3987 1728,-1507.3987 1728,-1568.6013"/>
<text text-anchor="middle" x="1188" y="-1542.2" font-family="Arial" font-size="14.00" fill="#000000">All transplant recipients</text>
<text text-anchor="middle" x="1188" y="-1525.4" font-family="Arial" font-size="14.00" fill="#000000">(n = 64)</text>
</g>
<!-- mid1 -->
<!-- incl1&#45;&gt;mid1 -->
<g id="edge1" class="edge">
<title>incl1&#45;&gt;mid1</title>
<path fill="none" stroke="#000000" d="M1188,-1507.3329C1188,-1459.8179 1188,-1373.5485 1188,-1370.8642"/>
</g>
<!-- incl2 -->
<g id="node2" class="node">
<title>incl2</title>
<polygon fill="none" stroke="#000000" points="1728,-1234.2013 648,-1234.2013 648,-1172.9987 1728,-1172.9987 1728,-1234.2013"/>
<text text-anchor="middle" x="1188" y="-1207.8" font-family="Arial" font-size="14.00" fill="#000000">Age 18–65</text>
<text text-anchor="middle" x="1188" y="-1191" font-family="Arial" font-size="14.00" fill="#000000">(n = 63)</text>
</g>
<!-- mid2 -->
<!-- incl2&#45;&gt;mid2 -->
<g id="edge4" class="edge">
<title>incl2&#45;&gt;mid2</title>
<path fill="none" stroke="#000000" d="M1188,-1172.9329C1188,-1125.4179 1188,-1039.1485 1188,-1036.4642"/>
</g>
<!-- incl3 -->
<g id="node3" class="node">
<title>incl3</title>
<polygon fill="none" stroke="#000000" points="1728,-899.8013 648,-899.8013 648,-838.5987 1728,-838.5987 1728,-899.8013"/>
<text text-anchor="middle" x="1188" y="-873.4" font-family="Arial" font-size="14.00" fill="#000000">CMV positive</text>
<text text-anchor="middle" x="1188" y="-856.6" font-family="Arial" font-size="14.00" fill="#000000">(n = 39)</text>
</g>
<!-- mid3 -->
<!-- incl3&#45;&gt;mid3 -->
<g id="edge7" class="edge">
<title>incl3&#45;&gt;mid3</title>
<path fill="none" stroke="#000000" d="M1188,-838.5329C1188,-791.0179 1188,-704.7485 1188,-702.0642"/>
</g>
<!-- incl4 -->
<g id="node4" class="node">
<title>incl4</title>
<polygon fill="none" stroke="#000000" points="1728,-565.4013 648,-565.4013 648,-504.1987 1728,-504.1987 1728,-565.4013"/>
<text text-anchor="middle" x="1188" y="-539" font-family="Arial" font-size="14.00" fill="#000000">Donor CMV positive</text>
<text text-anchor="middle" x="1188" y="-522.2" font-family="Arial" font-size="14.00" fill="#000000">(n = 28)</text>
</g>
<!-- mid4 -->
<!-- incl4&#45;&gt;mid4 -->
<g id="edge10" class="edge">
<title>incl4&#45;&gt;mid4</title>
<path fill="none" stroke="#000000" d="M1188,-504.1329C1188,-456.6179 1188,-370.3485 1188,-367.6642"/>
</g>
<!-- incl5 -->
<g id="node5" class="node">
<title>incl5</title>
<polygon fill="none" stroke="#000000" points="1728,-231.0013 648,-231.0013 648,-169.7987 1728,-169.7987 1728,-231.0013"/>
<text text-anchor="middle" x="1188" y="-204.6" font-family="Arial" font-size="14.00" fill="#000000">No prior transplant</text>
<text text-anchor="middle" x="1188" y="-187.8" font-family="Arial" font-size="14.00" fill="#000000">(n = 23)</text>
</g>
<!-- incl6 -->
<g id="node6" class="node">
<title>incl6</title>
<polygon fill="none" stroke="#000000" points="1080,-61.4013 0,-61.4013 0,-.1987 1080,-.1987 1080,-61.4013"/>
<text text-anchor="middle" x="540" y="-35" font-family="Arial" font-size="14.00" fill="#000000">CGVHD value:0</text>
<text text-anchor="middle" x="540" y="-18.2" font-family="Arial" font-size="14.00" fill="#000000">(n = 13)</text>
</g>
<!-- incl5&#45;&gt;incl6 -->
<g id="edge13" class="edge">
<title>incl5&#45;&gt;incl6</title>
<path fill="none" stroke="#000000" d="M1071.0274,-169.7849C957.0291,-139.9484 784.1942,-94.7125 666.9172,-64.0178"/>
<polygon fill="#000000" stroke="#000000" points="667.721,-60.6104 657.1606,-61.4643 665.9485,-67.3823 667.721,-60.6104"/>
</g>
<!-- incl7 -->
<g id="node7" class="node">
<title>incl7</title>
<polygon fill="none" stroke="#000000" points="2376,-61.4013 1296,-61.4013 1296,-.1987 2376,-.1987 2376,-61.4013"/>
<text text-anchor="middle" x="1836" y="-35" font-family="Arial" font-size="14.00" fill="#000000">CGVHD value:1</text>
<text text-anchor="middle" x="1836" y="-18.2" font-family="Arial" font-size="14.00" fill="#000000">(n = 10)</text>
</g>
<!-- incl5&#45;&gt;incl7 -->
<g id="edge14" class="edge">
<title>incl5&#45;&gt;incl7</title>
<path fill="none" stroke="#000000" d="M1304.9726,-169.7849C1418.9709,-139.9484 1591.8058,-94.7125 1709.0828,-64.0178"/>
<polygon fill="#000000" stroke="#000000" points="1710.0515,-67.3823 1718.8394,-61.4643 1708.279,-60.6104 1710.0515,-67.3823"/>
</g>
<!-- excl1 -->
<g id="node8" class="node">
<title>excl1</title>
<polygon fill="none" stroke="#000000" stroke-dasharray="5,2" points="2124,-1399.1004 1404,-1399.1004 1404,-1342.4996 2124,-1342.4996 2124,-1399.1004"/>
<text text-anchor="middle" x="1764" y="-1374.4" font-family="Arial" font-size="12.00" fill="#000000">Excluded: Outside 18–65</text>
<text text-anchor="middle" x="1764" y="-1360" font-family="Arial" font-size="12.00" fill="#000000">(n = 1)</text>
</g>
<!-- excl2 -->
<g id="node9" class="node">
<title>excl2</title>
<polygon fill="none" stroke="#000000" stroke-dasharray="5,2" points="2124,-1064.7004 1404,-1064.7004 1404,-1008.0996 2124,-1008.0996 2124,-1064.7004"/>
<text text-anchor="middle" x="1764" y="-1040" font-family="Arial" font-size="12.00" fill="#000000">Excluded: CMV negative</text>
<text text-anchor="middle" x="1764" y="-1025.6" font-family="Arial" font-size="12.00" fill="#000000">(n = 24)</text>
</g>
<!-- excl3 -->
<g id="node10" class="node">
<title>excl3</title>
<polygon fill="none" stroke="#000000" stroke-dasharray="5,2" points="2124,-730.3004 1404,-730.3004 1404,-673.6996 2124,-673.6996 2124,-730.3004"/>
<text text-anchor="middle" x="1764" y="-705.6" font-family="Arial" font-size="12.00" fill="#000000">Excluded: Donor CMV negative</text>
<text text-anchor="middle" x="1764" y="-691.2" font-family="Arial" font-size="12.00" fill="#000000">(n = 11)</text>
</g>
<!-- excl4 -->
<g id="node11" class="node">
<title>excl4</title>
<polygon fill="none" stroke="#000000" stroke-dasharray="5,2" points="2124,-395.9004 1404,-395.9004 1404,-339.2996 2124,-339.2996 2124,-395.9004"/>
<text text-anchor="middle" x="1764" y="-371.2" font-family="Arial" font-size="12.00" fill="#000000">Excluded: Prior transplant</text>
<text text-anchor="middle" x="1764" y="-356.8" font-family="Arial" font-size="12.00" fill="#000000">(n = 5)</text>
</g>
<!-- mid1&#45;&gt;incl2 -->
<g id="edge2" class="edge">
<title>mid1&#45;&gt;incl2</title>
<path fill="none" stroke="#000000" d="M1188,-1370.6788C1188,-1367.2793 1188,-1293.1213 1188,-1244.7571"/>
<polygon fill="#000000" stroke="#000000" points="1191.5001,-1244.5656 1188,-1234.5656 1184.5001,-1244.5656 1191.5001,-1244.5656"/>
</g>
<!-- mid1&#45;&gt;excl1 -->
<g id="edge3" class="edge">
<title>mid1&#45;&gt;excl1</title>
<path fill="none" stroke="#666666" d="M1188.2813,-1370.8C1256.7834,-1370.8 1325.2856,-1370.8 1393.7878,-1370.8"/>
<polygon fill="#666666" stroke="#666666" points="1393.8947,-1374.3001 1403.8947,-1370.8 1393.8946,-1367.3001 1393.8947,-1374.3001"/>
</g>
<!-- mid2&#45;&gt;incl3 -->
<g id="edge5" class="edge">
<title>mid2&#45;&gt;incl3</title>
<path fill="none" stroke="#000000" d="M1188,-1036.2788C1188,-1032.8793 1188,-958.7213 1188,-910.3571"/>
<polygon fill="#000000" stroke="#000000" points="1191.5001,-910.1656 1188,-900.1656 1184.5001,-910.1656 1191.5001,-910.1656"/>
</g>
<!-- mid2&#45;&gt;excl2 -->
<g id="edge6" class="edge">
<title>mid2&#45;&gt;excl2</title>
<path fill="none" stroke="#666666" d="M1188.2813,-1036.4C1256.7834,-1036.4 1325.2856,-1036.4 1393.7878,-1036.4"/>
<polygon fill="#666666" stroke="#666666" points="1393.8947,-1039.9001 1403.8947,-1036.4 1393.8946,-1032.9001 1393.8947,-1039.9001"/>
</g>
<!-- mid3&#45;&gt;incl4 -->
<g id="edge8" class="edge">
<title>mid3&#45;&gt;incl4</title>
<path fill="none" stroke="#000000" d="M1188,-701.8788C1188,-698.4793 1188,-624.3213 1188,-575.9571"/>
<polygon fill="#000000" stroke="#000000" points="1191.5001,-575.7656 1188,-565.7656 1184.5001,-575.7656 1191.5001,-575.7656"/>
</g>
<!-- mid3&#45;&gt;excl3 -->
<g id="edge9" class="edge">
<title>mid3&#45;&gt;excl3</title>
<path fill="none" stroke="#666666" d="M1188.2813,-702C1256.7834,-702 1325.2856,-702 1393.7878,-702"/>
<polygon fill="#666666" stroke="#666666" points="1393.8947,-705.5001 1403.8947,-702 1393.8946,-698.5001 1393.8947,-705.5001"/>
</g>
<!-- mid4&#45;&gt;incl5 -->
<g id="edge11" class="edge">
<title>mid4&#45;&gt;incl5</title>
<path fill="none" stroke="#000000" d="M1188,-367.4788C1188,-364.0793 1188,-289.9213 1188,-241.5571"/>
<polygon fill="#000000" stroke="#000000" points="1191.5001,-241.3656 1188,-231.3656 1184.5001,-241.3656 1191.5001,-241.3656"/>
</g>
<!-- mid4&#45;&gt;excl4 -->
<g id="edge12" class="edge">
<title>mid4&#45;&gt;excl4</title>
<path fill="none" stroke="#666666" d="M1188.2813,-367.6C1256.7834,-367.6 1325.2856,-367.6 1393.7878,-367.6"/>
<polygon fill="#666666" stroke="#666666" points="1393.8947,-371.1001 1403.8947,-367.6 1393.8946,-364.1001 1393.8947,-371.1001"/>
</g>
</g>
</svg>

