<?xml version="1.0" encoding="UTF-8" standalone="no"?>
<!DOCTYPE svg PUBLIC "-//W3C//DTD SVG 1.1//EN"
 "http://www.w3.org/Graphics/SVG/1.1/DTD/svg11.dtd">
<!-- Generated by graphviz version 2.40.1 (20161225.0304)
 -->
<!-- Title: strobe Pages: 1 -->
<svg width="528pt" height="1407pt"
 viewBox="0.00 0.00 527.68 1407.20" xmlns="http://www.w3.org/2000/svg" xmlns:xlink="http://www.w3.org/1999/xlink">
<g id="graph0" class="graph" transform="scale(1 1) rotate(0) translate(4 1403.2)">
<title>strobe</title>
<polygon fill="#ffffff" stroke="transparent" points="-4,4 -4,-1403.2 523.685,-1403.2 523.685,4 -4,4"/>
<!-- incl1 -->
<g id="node1" class="node">
<title>incl1</title>
<polygon fill="none" stroke="#000000" points="216,-1399.0013 0,-1399.0013 0,-1337.7987 216,-1337.7987 216,-1399.0013"/>
<text text-anchor="middle" x="108" y="-1372.6" font-family="Arial" font-size="14.00" fill="#000000">All transplant recipients</text>
<text text-anchor="middle" x="108" y="-1355.8" font-family="Arial" font-size="14.00" fill="#000000">(n = 64)</text>
</g>
<!-- mid1 -->
<!-- incl1&#45;&gt;mid1 -->
<g id="edge1" class="edge">
<title>incl1&#45;&gt;mid1</title>
<path fill="none" stroke="#000000" d="M108,-1337.7329C108,-1290.2179 108,-1203.9485 108,-1201.2642"/>
</g>
<!-- incl2 -->
<g id="node2" class="node">
<title>incl2</title>
<polygon fill="none" stroke="#000000" points="216,-1064.6013 0,-1064.6013 0,-1003.3987 216,-1003.3987 216,-1064.6013"/>
<text text-anchor="middle" x="108" y="-1038.2" font-family="Arial" font-size="14.00" fill="#000000">Age 18–65</text>
<text text-anchor="middle" x="108" y="-1021.4" font-family="Arial" font-size="14.00" fill="#000000">(n = 63)</text>
</g>
<!-- mid2 -->
<!-- incl2&#45;&gt;mid2 -->
<g id="edge4" class="edge">
<title>incl2&#45;&gt;mid2</title>
<path fill="none" stroke="#000000" d="M108,-1003.3329C108,-955.8179 108,-869.5485 108,-866.8642"/>
</g>
<!-- incl3 -->
<g id="node3" class="node">
<title>incl3</title>
<polygon fill="none" stroke="#000000" points="216,-730.2013 0,-730.2013 0,-668.9987 216,-668.9987 216,-730.2013"/>
<text text-anchor="middle" x="108" y="-703.8" font-family="Arial" font-size="14.00" fill="#000000">CMV positive</text>
<text text-anchor="middle" x="108" y="-687" font-family="Arial" font-size="14.00" fill="#000000">(n = 39)</text>
</g>
<!-- mid3 -->
<!-- incl3&#45;&gt;mid3 -->
<g id="edge7" class="edge">
<title>incl3&#45;&gt;mid3</title>
<path fill="none" stroke="#000000" d="M108,-668.9329C108,-621.4179 108,-535.1485 108,-532.4642"/>
</g>
<!-- incl4 -->
<g id="node4" class="node">
<title>incl4</title>
<polygon fill="none" stroke="#000000" points="216,-395.8013 0,-395.8013 0,-334.5987 216,-334.5987 216,-395.8013"/>
<text text-anchor="middle" x="108" y="-369.4" font-family="Arial" font-size="14.00" fill="#000000">Donor CMV positive</text>
<text text-anchor="middle" x="108" y="-352.6" font-family="Arial" font-size="14.00" fill="#000000">(n = 28)</text>
</g>
<!-- mid4 -->
<!-- incl4&#45;&gt;mid4 -->
<g id="edge10" class="edge">
<title>incl4&#45;&gt;mid4</title>
<path fill="none" stroke="#000000" d="M108,-334.5329C108,-287.0179 108,-200.7485 108,-198.0642"/>
</g>
<!-- incl5 -->
<g id="node5" class="node">
<title>incl5</title>
<polygon fill="none" stroke="#000000" points="216,-61.4013 0,-61.4013 0,-.1987 216,-.1987 216,-61.4013"/>
<text text-anchor="middle" x="108" y="-35" font-family="Arial" font-size="14.00" fill="#000000">No prior transplant</text>
<text text-anchor="middle" x="108" y="-18.2" font-family="Arial" font-size="14.00" fill="#000000">(n = 23)</text>
</g>
<!-- excl1 -->
<g id="node6" class="node">
<title>excl1</title>
<polygon fill="none" stroke="#000000" stroke-dasharray="5,2" points="504,-1229.5004 324,-1229.5004 324,-1172.8996 504,-1172.8996 504,-1229.5004"/>
<text text-anchor="middle" x="414" y="-1204.8" font-family="Arial" font-size="12.00" fill="#000000">Excluded: Outside 18–65</text>
<text text-anchor="middle" x="414" y="-1190.4" font-family="Arial" font-size="12.00" fill="#000000">(n = 1)</text>
</g>
<!-- excl2 -->
<g id="node7" class="node">
<title>excl2</title>
<polygon fill="none" stroke="#000000" stroke-dasharray="5,2" points="504,-895.1004 324,-895.1004 324,-838.4996 504,-838.4996 504,-895.1004"/>
<text text-anchor="middle" x="414" y="-870.4" font-family="Arial" font-size="12.00" fill="#000000">Excluded: CMV negative</text>
<text text-anchor="middle" x="414" y="-856" font-family="Arial" font-size="12.00" fill="#000000">(n = 24)</text>
</g>
<!-- excl3 -->
<g id="node8" class="node">
<title>excl3</title>
<polygon fill="none" stroke="#000000" stroke-dasharray="5,2" points="519.8704,-560.7004 324.1296,-560.7004 324.1296,-504.0996 519.8704,-504.0996 519.8704,-560.7004"/>
<text text-anchor="middle" x="422" y="-536" font-family="Arial" font-size="12.00" fill="#000000">Excluded: Donor CMV negative</text>
<text text-anchor="middle" x="422" y="-521.6" font-family="Arial" font-size="12.00" fill="#000000">(n = 11)</text>
</g>
<!-- excl4 -->
<g id="node9" class="node">
<title>excl4</title>
<polygon fill="none" stroke="#000000" stroke-dasharray="5,2" points="504,-226.3004 324,-226.3004 324,-169.6996 504,-169.6996 504,-226.3004"/>
<text text-anchor="middle" x="414" y="-201.6" font-family="Arial" font-size="12.00" fill="#000000">Excluded: Prior transplant</text>
<text text-anchor="middle" x="414" y="-187.2" font-family="Arial" font-size="12.00" fill="#000000">(n = 5)</text>
</g>
<!-- mid1&#45;&gt;incl2 -->
<g id="edge2" class="edge">
<title>mid1&#45;&gt;incl2</title>
<path fill="none" stroke="#000000" d="M108,-1201.0788C108,-1197.6793 108,-1123.5213 108,-1075.1571"/>
<polygon fill="#000000" stroke="#000000" points="111.5001,-1074.9656 108,-1064.9656 104.5001,-1074.9656 111.5001,-1074.9656"/>
</g>
<!-- mid1&#45;&gt;excl1 -->
<g id="edge3" class="edge">
<title>mid1&#45;&gt;excl1</title>
<path fill="none" stroke="#666666" d="M108.2988,-1201.2C176.7787,-1201.2 245.2586,-1201.2 313.7384,-1201.2"/>
<polygon fill="#666666" stroke="#666666" points="313.8421,-1204.7001 323.842,-1201.2 313.842,-1197.7001 313.8421,-1204.7001"/>
</g>
<!-- mid2&#45;&gt;incl3 -->
<g id="edge5" class="edge">
<title>mid2&#45;&gt;incl3</title>
<path fill="none" stroke="#000000" d="M108,-866.6788C108,-863.2793 108,-789.1213 108,-740.7571"/>
<polygon fill="#000000" stroke="#000000" points="111.5001,-740.5656 108,-730.5656 104.5001,-740.5656 111.5001,-740.5656"/>
</g>
<!-- mid2&#45;&gt;excl2 -->
<g id="edge6" class="edge">
<title>mid2&#45;&gt;excl2</title>
<path fill="none" stroke="#666666" d="M108.2988,-866.8C176.7787,-866.8 245.2586,-866.8 313.7384,-866.8"/>
<polygon fill="#666666" stroke="#666666" points="313.8421,-870.3001 323.842,-866.8 313.842,-863.3001 313.8421,-870.3001"/>
</g>
<!-- mid3&#45;&gt;incl4 -->
<g id="edge8" class="edge">
<title>mid3&#45;&gt;incl4</title>
<path fill="none" stroke="#000000" d="M108,-532.2788C108,-528.8793 108,-454.7213 108,-406.3571"/>
<polygon fill="#000000" stroke="#000000" points="111.5001,-406.1656 108,-396.1656 104.5001,-406.1656 111.5001,-406.1656"/>
</g>
<!-- mid3&#45;&gt;excl3 -->
<g id="edge9" class="edge">
<title>mid3&#45;&gt;excl3</title>
<path fill="none" stroke="#666666" d="M108.3066,-532.4C176.9223,-532.4 245.5379,-532.4 314.1535,-532.4"/>
<polygon fill="#666666" stroke="#666666" points="314.2772,-535.9001 324.2772,-532.4 314.2771,-528.9001 314.2772,-535.9001"/>
</g>
<!-- mid4&#45;&gt;incl5 -->
<g id="edge11" class="edge">
<title>mid4&#45;&gt;incl5</title>
<path fill="none" stroke="#000000" d="M108,-197.8788C108,-194.4793 108,-120.3213 108,-71.9571"/>
<polygon fill="#000000" stroke="#000000" points="111.5001,-71.7656 108,-61.7656 104.5001,-71.7656 111.5001,-71.7656"/>
</g>
<!-- mid4&#45;&gt;excl4 -->
<g id="edge12" class="edge">
<title>mid4&#45;&gt;excl4</title>
<path fill="none" stroke="#666666" d="M108.2988,-198C176.7787,-198 245.2586,-198 313.7384,-198"/>
<polygon fill="#666666" stroke="#666666" points="313.8421,-201.5001 323.842,-198 313.842,-194.5001 313.8421,-201.5001"/>
</g>
</g>
</svg>

