<?xml version="1.0" encoding="UTF-8" standalone="no"?>
<!DOCTYPE svg PUBLIC "-//W3C//DTD SVG 1.1//EN"
 "http://www.w3.org/Graphics/SVG/1.1/DTD/svg11.dtd">
<!-- Generated by graphviz version 2.40.1 (20161225.0304)
 -->
<!-- Title: strobe Pages: 1 -->
<svg width="692pt" height="1756pt"
 viewBox="0.00 0.00 692.00 1756.00" xmlns="http://www.w3.org/2000/svg" xmlns:xlink="http://www.w3.org/1999/xlink">
<g id="graph0" class="graph" transform="scale(1 1) rotate(0) translate(4 1752)">
<title>strobe</title>
<polygon fill="#ffffff" stroke="transparent" points="-4,4 -4,-1752 688,-1752 688,4 -4,4"/>
<!-- incl1 -->
<g id="node1" class="node">
<title>incl1</title>
<polygon fill="none" stroke="#000000" points="360,-1748 0,-1748 0,-1640 360,-1640 360,-1748"/>
<text text-anchor="middle" x="180" y="-1699.4" font-family="Arial" font-size="18.00" fill="#000000">All transplant recipients</text>
<text text-anchor="middle" x="180" y="-1677.8" font-family="Arial" font-size="18.00" fill="#000000">(n = 64)</text>
</g>
<!-- mid1 -->
<!-- incl1&#45;&gt;mid1 -->
<g id="edge1" class="edge">
<title>incl1&#45;&gt;mid1</title>
<path fill="none" stroke="#000000" d="M180,-1639.8705C180,-1580.084 180,-1491.8095 180,-1489.0656"/>
</g>
<!-- incl2 -->
<g id="node2" class="node">
<title>incl2</title>
<polygon fill="none" stroke="#000000" points="360,-1338 0,-1338 0,-1230 360,-1230 360,-1338"/>
<text text-anchor="middle" x="180" y="-1289.4" font-family="Arial" font-size="18.00" fill="#000000">Age 18–65</text>
<text text-anchor="middle" x="180" y="-1267.8" font-family="Arial" font-size="18.00" fill="#000000">(n = 63)</text>
</g>
<!-- mid2 -->
<!-- incl2&#45;&gt;mid2 -->
<g id="edge4" class="edge">
<title>incl2&#45;&gt;mid2</title>
<path fill="none" stroke="#000000" d="M180,-1229.8705C180,-1170.084 180,-1081.8095 180,-1079.0656"/>
</g>
<!-- incl3 -->
<g id="node3" class="node">
<title>incl3</title>
<polygon fill="none" stroke="#000000" points="360,-928 0,-928 0,-820 360,-820 360,-928"/>
<text text-anchor="middle" x="180" y="-879.4" font-family="Arial" font-size="18.00" fill="#000000">CMV positive</text>
<text text-anchor="middle" x="180" y="-857.8" font-family="Arial" font-size="18.00" fill="#000000">(n = 39)</text>
</g>
<!-- mid3 -->
<!-- incl3&#45;&gt;mid3 -->
<g id="edge7" class="edge">
<title>incl3&#45;&gt;mid3</title>
<path fill="none" stroke="#000000" d="M180,-819.8705C180,-760.084 180,-671.8095 180,-669.0656"/>
</g>
<!-- incl4 -->
<g id="node4" class="node">
<title>incl4</title>
<polygon fill="none" stroke="#000000" points="360,-518 0,-518 0,-410 360,-410 360,-518"/>
<text text-anchor="middle" x="180" y="-469.4" font-family="Arial" font-size="18.00" fill="#000000">Donor CMV positive</text>
<text text-anchor="middle" x="180" y="-447.8" font-family="Arial" font-size="18.00" fill="#000000">(n = 28)</text>
</g>
<!-- mid4 -->
<!-- incl4&#45;&gt;mid4 -->
<g id="edge10" class="edge">
<title>incl4&#45;&gt;mid4</title>
<path fill="none" stroke="#000000" d="M180,-409.8705C180,-350.084 180,-261.8095 180,-259.0656"/>
</g>
<!-- incl5 -->
<g id="node5" class="node">
<title>incl5</title>
<polygon fill="none" stroke="#000000" points="360,-108 0,-108 0,0 360,0 360,-108"/>
<text text-anchor="middle" x="180" y="-59.4" font-family="Arial" font-size="18.00" fill="#000000">No prior transplant</text>
<text text-anchor="middle" x="180" y="-37.8" font-family="Arial" font-size="18.00" fill="#000000">(n = 23)</text>
</g>
<!-- excl1 -->
<g id="node6" class="node">
<title>excl1</title>
<polygon fill="none" stroke="#000000" stroke-dasharray="5,2" points="684,-1532 396,-1532 396,-1446 684,-1446 684,-1532"/>
<text text-anchor="middle" x="540" y="-1493.8" font-family="Arial" font-size="16.00" fill="#000000">Excluded: Outside 18–65</text>
<text text-anchor="middle" x="540" y="-1474.6" font-family="Arial" font-size="16.00" fill="#000000">(n = 1)</text>
</g>
<!-- excl2 -->
<g id="node7" class="node">
<title>excl2</title>
<polygon fill="none" stroke="#000000" stroke-dasharray="5,2" points="684,-1122 396,-1122 396,-1036 684,-1036 684,-1122"/>
<text text-anchor="middle" x="540" y="-1083.8" font-family="Arial" font-size="16.00" fill="#000000">Excluded: CMV negative</text>
<text text-anchor="middle" x="540" y="-1064.6" font-family="Arial" font-size="16.00" fill="#000000">(n = 24)</text>
</g>
<!-- excl3 -->
<g id="node8" class="node">
<title>excl3</title>
<polygon fill="none" stroke="#000000" stroke-dasharray="5,2" points="684,-712 396,-712 396,-626 684,-626 684,-712"/>
<text text-anchor="middle" x="540" y="-673.8" font-family="Arial" font-size="16.00" fill="#000000">Excluded: Donor CMV negative</text>
<text text-anchor="middle" x="540" y="-654.6" font-family="Arial" font-size="16.00" fill="#000000">(n = 11)</text>
</g>
<!-- excl4 -->
<g id="node9" class="node">
<title>excl4</title>
<polygon fill="none" stroke="#000000" stroke-dasharray="5,2" points="684,-302 396,-302 396,-216 684,-216 684,-302"/>
<text text-anchor="middle" x="540" y="-263.8" font-family="Arial" font-size="16.00" fill="#000000">Excluded: Prior transplant</text>
<text text-anchor="middle" x="540" y="-244.6" font-family="Arial" font-size="16.00" fill="#000000">(n = 5)</text>
</g>
<!-- mid1&#45;&gt;incl2 -->
<g id="edge2" class="edge">
<title>mid1&#45;&gt;incl2</title>
<path fill="none" stroke="#000000" d="M180,-1488.8514C180,-1484.997 180,-1406.9499 180,-1348.3319"/>
<polygon fill="#000000" stroke="#000000" points="183.5001,-1348.0037 180,-1338.0037 176.5001,-1348.0038 183.5001,-1348.0037"/>
</g>
<!-- mid1&#45;&gt;excl1 -->
<g id="edge3" class="edge">
<title>mid1&#45;&gt;excl1</title>
<path fill="none" stroke="#666666" d="M180.3516,-1489C248.7533,-1489 317.1551,-1489 385.5569,-1489"/>
<polygon fill="#666666" stroke="#666666" points="385.649,-1492.5001 395.6489,-1489 385.6489,-1485.5001 385.649,-1492.5001"/>
</g>
<!-- mid2&#45;&gt;incl3 -->
<g id="edge5" class="edge">
<title>mid2&#45;&gt;incl3</title>
<path fill="none" stroke="#000000" d="M180,-1078.8514C180,-1074.997 180,-996.9499 180,-938.3319"/>
<polygon fill="#000000" stroke="#000000" points="183.5001,-938.0037 180,-928.0037 176.5001,-938.0038 183.5001,-938.0037"/>
</g>
<!-- mid2&#45;&gt;excl2 -->
<g id="edge6" class="edge">
<title>mid2&#45;&gt;excl2</title>
<path fill="none" stroke="#666666" d="M180.3516,-1079C248.7533,-1079 317.1551,-1079 385.5569,-1079"/>
<polygon fill="#666666" stroke="#666666" points="385.649,-1082.5001 395.6489,-1079 385.6489,-1075.5001 385.649,-1082.5001"/>
</g>
<!-- mid3&#45;&gt;incl4 -->
<g id="edge8" class="edge">
<title>mid3&#45;&gt;incl4</title>
<path fill="none" stroke="#000000" d="M180,-668.8514C180,-664.997 180,-586.9499 180,-528.3319"/>
<polygon fill="#000000" stroke="#000000" points="183.5001,-528.0037 180,-518.0037 176.5001,-528.0038 183.5001,-528.0037"/>
</g>
<!-- mid3&#45;&gt;excl3 -->
<g id="edge9" class="edge">
<title>mid3&#45;&gt;excl3</title>
<path fill="none" stroke="#666666" d="M180.3516,-669C248.7533,-669 317.1551,-669 385.5569,-669"/>
<polygon fill="#666666" stroke="#666666" points="385.649,-672.5001 395.6489,-669 385.6489,-665.5001 385.649,-672.5001"/>
</g>
<!-- mid4&#45;&gt;incl5 -->
<g id="edge11" class="edge">
<title>mid4&#45;&gt;incl5</title>
<path fill="none" stroke="#000000" d="M180,-258.8514C180,-254.997 180,-176.9499 180,-118.3319"/>
<polygon fill="#000000" stroke="#000000" points="183.5001,-118.0037 180,-108.0037 176.5001,-118.0038 183.5001,-118.0037"/>
</g>
<!-- mid4&#45;&gt;excl4 -->
<g id="edge12" class="edge">
<title>mid4&#45;&gt;excl4</title>
<path fill="none" stroke="#666666" d="M180.3516,-259C248.7533,-259 317.1551,-259 385.5569,-259"/>
<polygon fill="#666666" stroke="#666666" points="385.649,-262.5001 395.6489,-259 385.6489,-255.5001 385.649,-262.5001"/>
</g>
</g>
</svg>

