<?xml version="1.0" encoding="UTF-8" standalone="no"?>
<!DOCTYPE svg PUBLIC "-//W3C//DTD SVG 1.1//EN"
 "http://www.w3.org/Graphics/SVG/1.1/DTD/svg11.dtd">
<!-- Generated by graphviz version 2.40.1 (20161225.0304)
 -->
<!-- Title: strobe Pages: 1 -->
<svg width="1031pt" height="1988pt"
 viewBox="0.00 0.00 1030.65 1988.00" xmlns="http://www.w3.org/2000/svg" xmlns:xlink="http://www.w3.org/1999/xlink">
<g id="graph0" class="graph" transform="scale(1 1) rotate(0) translate(4 1984)">
<title>strobe</title>
<polygon fill="#ffffff" stroke="transparent" points="-4,4 -4,-1984 1026.646,-1984 1026.646,4 -4,4"/>
<!-- incl1 -->
<g id="node1" class="node">
<title>incl1</title>
<polygon fill="none" stroke="#000000" points="441.5882,-1980 -.1962,-1980 -.1962,-1856 441.5882,-1856 441.5882,-1980"/>
<text text-anchor="middle" x="220.696" y="-1930" font-family="Helvetica,sans-Serif" font-size="40.00" fill="#000000">All transplant recipients</text>
<text text-anchor="middle" x="220.696" y="-1882" font-family="Helvetica,sans-Serif" font-size="40.00" fill="#000000">(n = 64)</text>
</g>
<!-- mid1 -->
<!-- incl1&#45;&gt;mid1 -->
<g id="edge1" class="edge">
<title>incl1&#45;&gt;mid1</title>
<path fill="none" stroke="#000000" d="M220.696,-1855.8283C220.696,-1788.1808 220.696,-1689.1517 220.696,-1686.0735"/>
</g>
<!-- incl2 -->
<g id="node2" class="node">
<title>incl2</title>
<polygon fill="none" stroke="#000000" points="336.7524,-1516 104.6396,-1516 104.6396,-1392 336.7524,-1392 336.7524,-1516"/>
<text text-anchor="middle" x="220.696" y="-1466" font-family="Helvetica,sans-Serif" font-size="40.00" fill="#000000">Age 18–65</text>
<text text-anchor="middle" x="220.696" y="-1418" font-family="Helvetica,sans-Serif" font-size="40.00" fill="#000000">(n = 63)</text>
</g>
<!-- mid2 -->
<!-- incl2&#45;&gt;mid2 -->
<g id="edge4" class="edge">
<title>incl2&#45;&gt;mid2</title>
<path fill="none" stroke="#000000" d="M220.696,-1391.8283C220.696,-1324.1808 220.696,-1225.1517 220.696,-1222.0735"/>
</g>
<!-- incl3 -->
<g id="node3" class="node">
<title>incl3</title>
<polygon fill="none" stroke="#000000" points="352.2564,-1052 89.1356,-1052 89.1356,-928 352.2564,-928 352.2564,-1052"/>
<text text-anchor="middle" x="220.696" y="-1002" font-family="Helvetica,sans-Serif" font-size="40.00" fill="#000000">CMV positive</text>
<text text-anchor="middle" x="220.696" y="-954" font-family="Helvetica,sans-Serif" font-size="40.00" fill="#000000">(n = 39)</text>
</g>
<!-- mid3 -->
<!-- incl3&#45;&gt;mid3 -->
<g id="edge7" class="edge">
<title>incl3&#45;&gt;mid3</title>
<path fill="none" stroke="#000000" d="M220.696,-927.8283C220.696,-860.1808 220.696,-761.1517 220.696,-758.0735"/>
</g>
<!-- incl4 -->
<g id="node4" class="node">
<title>incl4</title>
<polygon fill="none" stroke="#000000" points="412.2722,-588 29.1198,-588 29.1198,-464 412.2722,-464 412.2722,-588"/>
<text text-anchor="middle" x="220.696" y="-538" font-family="Helvetica,sans-Serif" font-size="40.00" fill="#000000">Donor CMV positive</text>
<text text-anchor="middle" x="220.696" y="-490" font-family="Helvetica,sans-Serif" font-size="40.00" fill="#000000">(n = 28)</text>
</g>
<!-- mid4 -->
<!-- incl4&#45;&gt;mid4 -->
<g id="edge10" class="edge">
<title>incl4&#45;&gt;mid4</title>
<path fill="none" stroke="#000000" d="M220.696,-463.8283C220.696,-396.1808 220.696,-297.1517 220.696,-294.0735"/>
</g>
<!-- incl5 -->
<g id="node5" class="node">
<title>incl5</title>
<polygon fill="none" stroke="#000000" points="399.124,-124 42.268,-124 42.268,0 399.124,0 399.124,-124"/>
<text text-anchor="middle" x="220.696" y="-74" font-family="Helvetica,sans-Serif" font-size="40.00" fill="#000000">No prior transplant</text>
<text text-anchor="middle" x="220.696" y="-26" font-family="Helvetica,sans-Serif" font-size="40.00" fill="#000000">(n = 23)</text>
</g>
<!-- excl1 -->
<g id="node6" class="node">
<title>excl1</title>
<polygon fill="none" stroke="#000000" stroke-dasharray="5,2" points="922.648,-1748 436.744,-1748 436.744,-1624 922.648,-1624 922.648,-1748"/>
<text text-anchor="middle" x="679.696" y="-1698" font-family="Helvetica,sans-Serif" font-size="40.00" fill="#000000">Excluded: Outside 18–65</text>
<text text-anchor="middle" x="679.696" y="-1650" font-family="Helvetica,sans-Serif" font-size="40.00" fill="#000000">(n = 1)</text>
</g>
<!-- excl2 -->
<g id="node7" class="node">
<title>excl2</title>
<polygon fill="none" stroke="#000000" stroke-dasharray="5,2" points="902.58,-1284 436.812,-1284 436.812,-1160 902.58,-1160 902.58,-1284"/>
<text text-anchor="middle" x="669.696" y="-1234" font-family="Helvetica,sans-Serif" font-size="40.00" fill="#000000">Excluded: CMV negative</text>
<text text-anchor="middle" x="669.696" y="-1186" font-family="Helvetica,sans-Serif" font-size="40.00" fill="#000000">(n = 24)</text>
</g>
<!-- excl3 -->
<g id="node8" class="node">
<title>excl3</title>
<polygon fill="none" stroke="#000000" stroke-dasharray="5,2" points="1022.596,-820 436.796,-820 436.796,-696 1022.596,-696 1022.596,-820"/>
<text text-anchor="middle" x="729.696" y="-770" font-family="Helvetica,sans-Serif" font-size="40.00" fill="#000000">Excluded: Donor CMV negative</text>
<text text-anchor="middle" x="729.696" y="-722" font-family="Helvetica,sans-Serif" font-size="40.00" fill="#000000">(n = 11)</text>
</g>
<!-- excl4 -->
<g id="node9" class="node">
<title>excl4</title>
<polygon fill="none" stroke="#000000" stroke-dasharray="5,2" points="922.564,-356 436.828,-356 436.828,-232 922.564,-232 922.564,-356"/>
<text text-anchor="middle" x="679.696" y="-306" font-family="Helvetica,sans-Serif" font-size="40.00" fill="#000000">Excluded: Prior transplant</text>
<text text-anchor="middle" x="679.696" y="-258" font-family="Helvetica,sans-Serif" font-size="40.00" fill="#000000">(n = 5)</text>
</g>
<!-- mid1&#45;&gt;incl2 -->
<g id="edge2" class="edge">
<title>mid1&#45;&gt;incl2</title>
<path fill="none" stroke="#000000" d="M220.696,-1685.8318C220.696,-1681.4532 220.696,-1592.4719 220.696,-1526.0508"/>
<polygon fill="#000000" stroke="#000000" points="224.1961,-1526.0145 220.696,-1516.0145 217.1961,-1526.0146 224.1961,-1526.0145"/>
</g>
<!-- mid1&#45;&gt;excl1 -->
<g id="edge3" class="edge">
<title>mid1&#45;&gt;excl1</title>
<path fill="none" stroke="#666666" d="M221.1442,-1686C289.5767,-1686 358.0091,-1686 426.4416,-1686"/>
<polygon fill="#666666" stroke="#666666" points="426.5382,-1689.5001 436.5382,-1686 426.5381,-1682.5001 426.5382,-1689.5001"/>
</g>
<!-- mid2&#45;&gt;incl3 -->
<g id="edge5" class="edge">
<title>mid2&#45;&gt;incl3</title>
<path fill="none" stroke="#000000" d="M220.696,-1221.8318C220.696,-1217.4532 220.696,-1128.4719 220.696,-1062.0508"/>
<polygon fill="#000000" stroke="#000000" points="224.1961,-1062.0145 220.696,-1052.0145 217.1961,-1062.0146 224.1961,-1062.0145"/>
</g>
<!-- mid2&#45;&gt;excl2 -->
<g id="edge6" class="edge">
<title>mid2&#45;&gt;excl2</title>
<path fill="none" stroke="#666666" d="M221.1345,-1222C289.6069,-1222 358.0793,-1222 426.5518,-1222"/>
<polygon fill="#666666" stroke="#666666" points="426.6543,-1225.5001 436.6543,-1222 426.6542,-1218.5001 426.6543,-1225.5001"/>
</g>
<!-- mid3&#45;&gt;incl4 -->
<g id="edge8" class="edge">
<title>mid3&#45;&gt;incl4</title>
<path fill="none" stroke="#000000" d="M220.696,-757.8318C220.696,-753.4532 220.696,-664.4719 220.696,-598.0508"/>
<polygon fill="#000000" stroke="#000000" points="224.1961,-598.0145 220.696,-588.0145 217.1961,-598.0146 224.1961,-598.0145"/>
</g>
<!-- mid3&#45;&gt;excl3 -->
<g id="edge9" class="edge">
<title>mid3&#45;&gt;excl3</title>
<path fill="none" stroke="#666666" d="M221.1931,-758C289.6649,-758 358.1367,-758 426.6085,-758"/>
<polygon fill="#666666" stroke="#666666" points="426.7109,-761.5001 436.7109,-758 426.7109,-754.5001 426.7109,-761.5001"/>
</g>
<!-- mid4&#45;&gt;incl5 -->
<g id="edge11" class="edge">
<title>mid4&#45;&gt;incl5</title>
<path fill="none" stroke="#000000" d="M220.696,-293.8318C220.696,-289.4532 220.696,-200.4719 220.696,-134.0508"/>
<polygon fill="#000000" stroke="#000000" points="224.1961,-134.0145 220.696,-124.0145 217.1961,-134.0146 224.1961,-134.0145"/>
</g>
<!-- mid4&#45;&gt;excl4 -->
<g id="edge12" class="edge">
<title>mid4&#45;&gt;excl4</title>
<path fill="none" stroke="#666666" d="M221.1442,-294C289.5767,-294 358.0091,-294 426.4416,-294"/>
<polygon fill="#666666" stroke="#666666" points="426.5382,-297.5001 436.5382,-294 426.5381,-290.5001 426.5382,-297.5001"/>
</g>
</g>
</svg>

