<?xml version="1.0" encoding="UTF-8" standalone="no"?>
<!DOCTYPE svg PUBLIC "-//W3C//DTD SVG 1.1//EN"
 "http://www.w3.org/Graphics/SVG/1.1/DTD/svg11.dtd">
<!-- Generated by graphviz version 2.40.1 (20161225.0304)
 -->
<!-- Title: strobe Pages: 1 -->
<svg width="3212pt" height="3420pt"
 viewBox="0.00 0.00 3212.00 3420.00" xmlns="http://www.w3.org/2000/svg" xmlns:xlink="http://www.w3.org/1999/xlink">
<g id="graph0" class="graph" transform="scale(1 1) rotate(0) translate(4 3416)">
<title>strobe</title>
<polygon fill="#ffffff" stroke="transparent" points="-4,4 -4,-3416 3208,-3416 3208,4 -4,4"/>
<!-- incl1 -->
<g id="node1" class="node">
<title>incl1</title>
<polygon fill="none" stroke="#000000" points="2268,-3412 828,-3412 828,-3168 2268,-3168 2268,-3412"/>
<text text-anchor="middle" x="1548" y="-3317" font-family="Arial" font-size="90.00" fill="#000000">All transplant recipients</text>
<text text-anchor="middle" x="1548" y="-3209" font-family="Arial" font-size="90.00" fill="#000000">(n = 64)</text>
</g>
<!-- mid1 -->
<!-- incl1&#45;&gt;mid1 -->
<g id="edge1" class="edge">
<title>incl1&#45;&gt;mid1</title>
<path fill="none" stroke="#000000" d="M1548,-3167.8754C1548,-3067.7979 1548,-2942.0001 1548,-2938.0933"/>
</g>
<!-- incl2 -->
<g id="node2" class="node">
<title>incl2</title>
<polygon fill="none" stroke="#000000" points="2268,-2708 828,-2708 828,-2464 2268,-2464 2268,-2708"/>
<text text-anchor="middle" x="1548" y="-2613" font-family="Arial" font-size="90.00" fill="#000000">Age 18–65</text>
<text text-anchor="middle" x="1548" y="-2505" font-family="Arial" font-size="90.00" fill="#000000">(n = 63)</text>
</g>
<!-- mid2 -->
<!-- incl2&#45;&gt;mid2 -->
<g id="edge4" class="edge">
<title>incl2&#45;&gt;mid2</title>
<path fill="none" stroke="#000000" d="M1548,-2463.8754C1548,-2363.7979 1548,-2238.0001 1548,-2234.0933"/>
</g>
<!-- incl3 -->
<g id="node3" class="node">
<title>incl3</title>
<polygon fill="none" stroke="#000000" points="2268,-2004 828,-2004 828,-1760 2268,-1760 2268,-2004"/>
<text text-anchor="middle" x="1548" y="-1909" font-family="Arial" font-size="90.00" fill="#000000">CMV positive</text>
<text text-anchor="middle" x="1548" y="-1801" font-family="Arial" font-size="90.00" fill="#000000">(n = 39)</text>
</g>
<!-- mid3 -->
<!-- incl3&#45;&gt;mid3 -->
<g id="edge7" class="edge">
<title>incl3&#45;&gt;mid3</title>
<path fill="none" stroke="#000000" d="M1548,-1759.8754C1548,-1659.7979 1548,-1534.0001 1548,-1530.0933"/>
</g>
<!-- incl4 -->
<g id="node4" class="node">
<title>incl4</title>
<polygon fill="none" stroke="#000000" points="2268,-1300 828,-1300 828,-1056 2268,-1056 2268,-1300"/>
<text text-anchor="middle" x="1548" y="-1205" font-family="Arial" font-size="90.00" fill="#000000">Donor CMV positive</text>
<text text-anchor="middle" x="1548" y="-1097" font-family="Arial" font-size="90.00" fill="#000000">(n = 28)</text>
</g>
<!-- mid4 -->
<!-- incl4&#45;&gt;mid4 -->
<g id="edge10" class="edge">
<title>incl4&#45;&gt;mid4</title>
<path fill="none" stroke="#000000" d="M1548,-1055.8754C1548,-955.7979 1548,-830.0001 1548,-826.0933"/>
</g>
<!-- incl5 -->
<g id="node5" class="node">
<title>incl5</title>
<polygon fill="none" stroke="#000000" points="2268,-596 828,-596 828,-352 2268,-352 2268,-596"/>
<text text-anchor="middle" x="1548" y="-501" font-family="Arial" font-size="90.00" fill="#000000">No prior transplant</text>
<text text-anchor="middle" x="1548" y="-393" font-family="Arial" font-size="90.00" fill="#000000">(n = 23)</text>
</g>
<!-- incl6 -->
<g id="node6" class="node">
<title>incl6</title>
<polygon fill="none" stroke="#000000" points="1440,-244 0,-244 0,0 1440,0 1440,-244"/>
<text text-anchor="middle" x="720" y="-149" font-family="Arial" font-size="90.00" fill="#000000">CGVHD value:0</text>
<text text-anchor="middle" x="720" y="-41" font-family="Arial" font-size="90.00" fill="#000000">(n = 13)</text>
</g>
<!-- incl5&#45;&gt;incl6 -->
<g id="edge13" class="edge">
<title>incl5&#45;&gt;incl6</title>
<path fill="none" stroke="#000000" d="M1261.0197,-351.9987C1182.1214,-318.4574 1096.4082,-282.0189 1016.9603,-248.244"/>
<polygon fill="#000000" stroke="#000000" points="1017.8757,-244.8301 1007.3035,-244.1387 1015.1371,-251.2721 1017.8757,-244.8301"/>
</g>
<!-- incl7 -->
<g id="node7" class="node">
<title>incl7</title>
<polygon fill="none" stroke="#000000" points="3096,-244 1656,-244 1656,0 3096,0 3096,-244"/>
<text text-anchor="middle" x="2376" y="-149" font-family="Arial" font-size="90.00" fill="#000000">CGVHD value:1</text>
<text text-anchor="middle" x="2376" y="-41" font-family="Arial" font-size="90.00" fill="#000000">(n = 10)</text>
</g>
<!-- incl5&#45;&gt;incl7 -->
<g id="edge14" class="edge">
<title>incl5&#45;&gt;incl7</title>
<path fill="none" stroke="#000000" d="M1834.9803,-351.9987C1913.8786,-318.4574 1999.5918,-282.0189 2079.0397,-248.244"/>
<polygon fill="#000000" stroke="#000000" points="2080.8629,-251.2721 2088.6965,-244.1387 2078.1243,-244.8301 2080.8629,-251.2721"/>
</g>
<!-- excl1 -->
<g id="node8" class="node">
<title>excl1</title>
<polygon fill="none" stroke="#000000" stroke-dasharray="5,2" points="3204,-3060 1764,-3060 1764,-2816 3204,-2816 3204,-3060"/>
<text text-anchor="middle" x="2484" y="-2965" font-family="Arial" font-size="90.00" fill="#000000">Excluded: Outside 18–65</text>
<text text-anchor="middle" x="2484" y="-2857" font-family="Arial" font-size="90.00" fill="#000000">(n = 1)</text>
</g>
<!-- excl2 -->
<g id="node9" class="node">
<title>excl2</title>
<polygon fill="none" stroke="#000000" stroke-dasharray="5,2" points="3204,-2356 1764,-2356 1764,-2112 3204,-2112 3204,-2356"/>
<text text-anchor="middle" x="2484" y="-2261" font-family="Arial" font-size="90.00" fill="#000000">Excluded: CMV negative</text>
<text text-anchor="middle" x="2484" y="-2153" font-family="Arial" font-size="90.00" fill="#000000">(n = 24)</text>
</g>
<!-- excl3 -->
<g id="node10" class="node">
<title>excl3</title>
<polygon fill="none" stroke="#000000" stroke-dasharray="5,2" points="3204,-1652 1764,-1652 1764,-1408 3204,-1408 3204,-1652"/>
<text text-anchor="middle" x="2484" y="-1557" font-family="Arial" font-size="90.00" fill="#000000">Excluded: Donor CMV negative</text>
<text text-anchor="middle" x="2484" y="-1449" font-family="Arial" font-size="90.00" fill="#000000">(n = 11)</text>
</g>
<!-- excl4 -->
<g id="node11" class="node">
<title>excl4</title>
<polygon fill="none" stroke="#000000" stroke-dasharray="5,2" points="3204,-948 1764,-948 1764,-704 3204,-704 3204,-948"/>
<text text-anchor="middle" x="2484" y="-853" font-family="Arial" font-size="90.00" fill="#000000">Excluded: Prior transplant</text>
<text text-anchor="middle" x="2484" y="-745" font-family="Arial" font-size="90.00" fill="#000000">(n = 5)</text>
</g>
<!-- mid1&#45;&gt;incl2 -->
<g id="edge2" class="edge">
<title>mid1&#45;&gt;incl2</title>
<path fill="none" stroke="#000000" d="M1548,-2937.9359C1548,-2934.792 1548,-2816.6446 1548,-2718.1059"/>
<polygon fill="#000000" stroke="#000000" points="1551.5001,-2718.0282 1548,-2708.0283 1544.5001,-2718.0283 1551.5001,-2718.0282"/>
</g>
<!-- mid1&#45;&gt;excl1 -->
<g id="edge3" class="edge">
<title>mid1&#45;&gt;excl1</title>
<path fill="none" stroke="#666666" d="M1548.457,-2938C1616.8141,-2938 1685.1711,-2938 1753.5282,-2938"/>
<polygon fill="#666666" stroke="#666666" points="1753.6137,-2941.5001 1763.6136,-2938 1753.6136,-2934.5001 1753.6137,-2941.5001"/>
</g>
<!-- mid2&#45;&gt;incl3 -->
<g id="edge5" class="edge">
<title>mid2&#45;&gt;incl3</title>
<path fill="none" stroke="#000000" d="M1548,-2233.9359C1548,-2230.792 1548,-2112.6446 1548,-2014.1059"/>
<polygon fill="#000000" stroke="#000000" points="1551.5001,-2014.0282 1548,-2004.0283 1544.5001,-2014.0283 1551.5001,-2014.0282"/>
</g>
<!-- mid2&#45;&gt;excl2 -->
<g id="edge6" class="edge">
<title>mid2&#45;&gt;excl2</title>
<path fill="none" stroke="#666666" d="M1548.457,-2234C1616.8141,-2234 1685.1711,-2234 1753.5282,-2234"/>
<polygon fill="#666666" stroke="#666666" points="1753.6137,-2237.5001 1763.6136,-2234 1753.6136,-2230.5001 1753.6137,-2237.5001"/>
</g>
<!-- mid3&#45;&gt;incl4 -->
<g id="edge8" class="edge">
<title>mid3&#45;&gt;incl4</title>
<path fill="none" stroke="#000000" d="M1548,-1529.9359C1548,-1526.792 1548,-1408.6446 1548,-1310.1059"/>
<polygon fill="#000000" stroke="#000000" points="1551.5001,-1310.0282 1548,-1300.0283 1544.5001,-1310.0283 1551.5001,-1310.0282"/>
</g>
<!-- mid3&#45;&gt;excl3 -->
<g id="edge9" class="edge">
<title>mid3&#45;&gt;excl3</title>
<path fill="none" stroke="#666666" d="M1548.457,-1530C1616.8141,-1530 1685.1711,-1530 1753.5282,-1530"/>
<polygon fill="#666666" stroke="#666666" points="1753.6137,-1533.5001 1763.6136,-1530 1753.6136,-1526.5001 1753.6137,-1533.5001"/>
</g>
<!-- mid4&#45;&gt;incl5 -->
<g id="edge11" class="edge">
<title>mid4&#45;&gt;incl5</title>
<path fill="none" stroke="#000000" d="M1548,-825.9359C1548,-822.792 1548,-704.6446 1548,-606.1059"/>
<polygon fill="#000000" stroke="#000000" points="1551.5001,-606.0282 1548,-596.0283 1544.5001,-606.0283 1551.5001,-606.0282"/>
</g>
<!-- mid4&#45;&gt;excl4 -->
<g id="edge12" class="edge">
<title>mid4&#45;&gt;excl4</title>
<path fill="none" stroke="#666666" d="M1548.457,-826C1616.8141,-826 1685.1711,-826 1753.5282,-826"/>
<polygon fill="#666666" stroke="#666666" points="1753.6137,-829.5001 1763.6136,-826 1753.6136,-822.5001 1753.6137,-829.5001"/>
</g>
</g>
</svg>

