<?xml version="1.0" encoding="UTF-8" standalone="no"?>
<!DOCTYPE svg PUBLIC "-//W3C//DTD SVG 1.1//EN"
 "http://www.w3.org/Graphics/SVG/1.1/DTD/svg11.dtd">
<!-- Generated by graphviz version 2.40.1 (20161225.0304)
 -->
<!-- Title: strobe Pages: 1 -->
<svg width="1304pt" height="1988pt"
 viewBox="0.00 0.00 1304.00 1988.00" xmlns="http://www.w3.org/2000/svg" xmlns:xlink="http://www.w3.org/1999/xlink">
<g id="graph0" class="graph" transform="scale(1 1) rotate(0) translate(4 1984)">
<title>strobe</title>
<polygon fill="#ffffff" stroke="transparent" points="-4,4 -4,-1984 1300,-1984 1300,4 -4,4"/>
<!-- incl1 -->
<g id="node1" class="node">
<title>incl1</title>
<polygon fill="none" stroke="#000000" points="720,-1980 0,-1980 0,-1856 720,-1856 720,-1980"/>
<text text-anchor="middle" x="360" y="-1930" font-family="Helvetica,sans-Serif" font-size="40.00" fill="#000000">All transplant recipients</text>
<text text-anchor="middle" x="360" y="-1882" font-family="Helvetica,sans-Serif" font-size="40.00" fill="#000000">(n = 64)</text>
</g>
<!-- mid1 -->
<!-- incl1&#45;&gt;mid1 -->
<g id="edge1" class="edge">
<title>incl1&#45;&gt;mid1</title>
<path fill="none" stroke="#000000" d="M360,-1855.8283C360,-1788.1808 360,-1689.1517 360,-1686.0735"/>
</g>
<!-- incl2 -->
<g id="node2" class="node">
<title>incl2</title>
<polygon fill="none" stroke="#000000" points="720,-1516 0,-1516 0,-1392 720,-1392 720,-1516"/>
<text text-anchor="middle" x="360" y="-1466" font-family="Helvetica,sans-Serif" font-size="40.00" fill="#000000">Age 18–65</text>
<text text-anchor="middle" x="360" y="-1418" font-family="Helvetica,sans-Serif" font-size="40.00" fill="#000000">(n = 63)</text>
</g>
<!-- mid2 -->
<!-- incl2&#45;&gt;mid2 -->
<g id="edge4" class="edge">
<title>incl2&#45;&gt;mid2</title>
<path fill="none" stroke="#000000" d="M360,-1391.8283C360,-1324.1808 360,-1225.1517 360,-1222.0735"/>
</g>
<!-- incl3 -->
<g id="node3" class="node">
<title>incl3</title>
<polygon fill="none" stroke="#000000" points="720,-1052 0,-1052 0,-928 720,-928 720,-1052"/>
<text text-anchor="middle" x="360" y="-1002" font-family="Helvetica,sans-Serif" font-size="40.00" fill="#000000">CMV positive</text>
<text text-anchor="middle" x="360" y="-954" font-family="Helvetica,sans-Serif" font-size="40.00" fill="#000000">(n = 39)</text>
</g>
<!-- mid3 -->
<!-- incl3&#45;&gt;mid3 -->
<g id="edge7" class="edge">
<title>incl3&#45;&gt;mid3</title>
<path fill="none" stroke="#000000" d="M360,-927.8283C360,-860.1808 360,-761.1517 360,-758.0735"/>
</g>
<!-- incl4 -->
<g id="node4" class="node">
<title>incl4</title>
<polygon fill="none" stroke="#000000" points="720,-588 0,-588 0,-464 720,-464 720,-588"/>
<text text-anchor="middle" x="360" y="-538" font-family="Helvetica,sans-Serif" font-size="40.00" fill="#000000">Donor CMV positive</text>
<text text-anchor="middle" x="360" y="-490" font-family="Helvetica,sans-Serif" font-size="40.00" fill="#000000">(n = 28)</text>
</g>
<!-- mid4 -->
<!-- incl4&#45;&gt;mid4 -->
<g id="edge10" class="edge">
<title>incl4&#45;&gt;mid4</title>
<path fill="none" stroke="#000000" d="M360,-463.8283C360,-396.1808 360,-297.1517 360,-294.0735"/>
</g>
<!-- incl5 -->
<g id="node5" class="node">
<title>incl5</title>
<polygon fill="none" stroke="#000000" points="720,-124 0,-124 0,0 720,0 720,-124"/>
<text text-anchor="middle" x="360" y="-74" font-family="Helvetica,sans-Serif" font-size="40.00" fill="#000000">No prior transplant</text>
<text text-anchor="middle" x="360" y="-26" font-family="Helvetica,sans-Serif" font-size="40.00" fill="#000000">(n = 23)</text>
</g>
<!-- excl1 -->
<g id="node6" class="node">
<title>excl1</title>
<polygon fill="none" stroke="#000000" stroke-dasharray="5,2" points="1296,-1748 576,-1748 576,-1624 1296,-1624 1296,-1748"/>
<text text-anchor="middle" x="936" y="-1698" font-family="Helvetica,sans-Serif" font-size="40.00" fill="#000000">Excluded: Outside 18–65</text>
<text text-anchor="middle" x="936" y="-1650" font-family="Helvetica,sans-Serif" font-size="40.00" fill="#000000">(n = 1)</text>
</g>
<!-- excl2 -->
<g id="node7" class="node">
<title>excl2</title>
<polygon fill="none" stroke="#000000" stroke-dasharray="5,2" points="1296,-1284 576,-1284 576,-1160 1296,-1160 1296,-1284"/>
<text text-anchor="middle" x="936" y="-1234" font-family="Helvetica,sans-Serif" font-size="40.00" fill="#000000">Excluded: CMV negative</text>
<text text-anchor="middle" x="936" y="-1186" font-family="Helvetica,sans-Serif" font-size="40.00" fill="#000000">(n = 24)</text>
</g>
<!-- excl3 -->
<g id="node8" class="node">
<title>excl3</title>
<polygon fill="none" stroke="#000000" stroke-dasharray="5,2" points="1296,-820 576,-820 576,-696 1296,-696 1296,-820"/>
<text text-anchor="middle" x="936" y="-770" font-family="Helvetica,sans-Serif" font-size="40.00" fill="#000000">Excluded: Donor CMV negative</text>
<text text-anchor="middle" x="936" y="-722" font-family="Helvetica,sans-Serif" font-size="40.00" fill="#000000">(n = 11)</text>
</g>
<!-- excl4 -->
<g id="node9" class="node">
<title>excl4</title>
<polygon fill="none" stroke="#000000" stroke-dasharray="5,2" points="1296,-356 576,-356 576,-232 1296,-232 1296,-356"/>
<text text-anchor="middle" x="936" y="-306" font-family="Helvetica,sans-Serif" font-size="40.00" fill="#000000">Excluded: Prior transplant</text>
<text text-anchor="middle" x="936" y="-258" font-family="Helvetica,sans-Serif" font-size="40.00" fill="#000000">(n = 5)</text>
</g>
<!-- mid1&#45;&gt;incl2 -->
<g id="edge2" class="edge">
<title>mid1&#45;&gt;incl2</title>
<path fill="none" stroke="#000000" d="M360,-1685.8318C360,-1681.4532 360,-1592.4719 360,-1526.0508"/>
<polygon fill="#000000" stroke="#000000" points="363.5001,-1526.0145 360,-1516.0145 356.5001,-1526.0146 363.5001,-1526.0145"/>
</g>
<!-- mid1&#45;&gt;excl1 -->
<g id="edge3" class="edge">
<title>mid1&#45;&gt;excl1</title>
<path fill="none" stroke="#666666" d="M360.2813,-1686C428.7834,-1686 497.2856,-1686 565.7878,-1686"/>
<polygon fill="#666666" stroke="#666666" points="565.8947,-1689.5001 575.8947,-1686 565.8946,-1682.5001 565.8947,-1689.5001"/>
</g>
<!-- mid2&#45;&gt;incl3 -->
<g id="edge5" class="edge">
<title>mid2&#45;&gt;incl3</title>
<path fill="none" stroke="#000000" d="M360,-1221.8318C360,-1217.4532 360,-1128.4719 360,-1062.0508"/>
<polygon fill="#000000" stroke="#000000" points="363.5001,-1062.0145 360,-1052.0145 356.5001,-1062.0146 363.5001,-1062.0145"/>
</g>
<!-- mid2&#45;&gt;excl2 -->
<g id="edge6" class="edge">
<title>mid2&#45;&gt;excl2</title>
<path fill="none" stroke="#666666" d="M360.2813,-1222C428.7834,-1222 497.2856,-1222 565.7878,-1222"/>
<polygon fill="#666666" stroke="#666666" points="565.8947,-1225.5001 575.8947,-1222 565.8946,-1218.5001 565.8947,-1225.5001"/>
</g>
<!-- mid3&#45;&gt;incl4 -->
<g id="edge8" class="edge">
<title>mid3&#45;&gt;incl4</title>
<path fill="none" stroke="#000000" d="M360,-757.8318C360,-753.4532 360,-664.4719 360,-598.0508"/>
<polygon fill="#000000" stroke="#000000" points="363.5001,-598.0145 360,-588.0145 356.5001,-598.0146 363.5001,-598.0145"/>
</g>
<!-- mid3&#45;&gt;excl3 -->
<g id="edge9" class="edge">
<title>mid3&#45;&gt;excl3</title>
<path fill="none" stroke="#666666" d="M360.2813,-758C428.7834,-758 497.2856,-758 565.7878,-758"/>
<polygon fill="#666666" stroke="#666666" points="565.8947,-761.5001 575.8947,-758 565.8946,-754.5001 565.8947,-761.5001"/>
</g>
<!-- mid4&#45;&gt;incl5 -->
<g id="edge11" class="edge">
<title>mid4&#45;&gt;incl5</title>
<path fill="none" stroke="#000000" d="M360,-293.8318C360,-289.4532 360,-200.4719 360,-134.0508"/>
<polygon fill="#000000" stroke="#000000" points="363.5001,-134.0145 360,-124.0145 356.5001,-134.0146 363.5001,-134.0145"/>
</g>
<!-- mid4&#45;&gt;excl4 -->
<g id="edge12" class="edge">
<title>mid4&#45;&gt;excl4</title>
<path fill="none" stroke="#666666" d="M360.2813,-294C428.7834,-294 497.2856,-294 565.7878,-294"/>
<polygon fill="#666666" stroke="#666666" points="565.8947,-297.5001 575.8947,-294 565.8946,-290.5001 565.8947,-297.5001"/>
</g>
</g>
</svg>

