<?xml version="1.0" encoding="UTF-8" standalone="no"?>
<!DOCTYPE svg PUBLIC "-//W3C//DTD SVG 1.1//EN"
 "http://www.w3.org/Graphics/SVG/1.1/DTD/svg11.dtd">
<!-- Generated by graphviz version 2.40.1 (20161225.0304)
 -->
<!-- Title: strobe Pages: 1 -->
<svg width="1484pt" height="1407pt"
 viewBox="0.00 0.00 1484.00 1407.20" xmlns="http://www.w3.org/2000/svg" xmlns:xlink="http://www.w3.org/1999/xlink">
<g id="graph0" class="graph" transform="scale(1 1) rotate(0) translate(4 1403.2)">
<title>strobe</title>
<polygon fill="#ffffff" stroke="transparent" points="-4,4 -4,-1403.2 1480,-1403.2 1480,4 -4,4"/>
<!-- incl1 -->
<g id="node1" class="node">
<title>incl1</title>
<polygon fill="none" stroke="#000000" points="1080,-1399.0013 0,-1399.0013 0,-1337.7987 1080,-1337.7987 1080,-1399.0013"/>
<text text-anchor="middle" x="540" y="-1372.6" font-family="Arial" font-size="14.00" fill="#000000">All transplant recipients</text>
<text text-anchor="middle" x="540" y="-1355.8" font-family="Arial" font-size="14.00" fill="#000000">(n = 64)</text>
</g>
<!-- mid1 -->
<!-- incl1&#45;&gt;mid1 -->
<g id="edge1" class="edge">
<title>incl1&#45;&gt;mid1</title>
<path fill="none" stroke="#000000" d="M540,-1337.7329C540,-1290.2179 540,-1203.9485 540,-1201.2642"/>
</g>
<!-- incl2 -->
<g id="node2" class="node">
<title>incl2</title>
<polygon fill="none" stroke="#000000" points="1080,-1064.6013 0,-1064.6013 0,-1003.3987 1080,-1003.3987 1080,-1064.6013"/>
<text text-anchor="middle" x="540" y="-1038.2" font-family="Arial" font-size="14.00" fill="#000000">Age 18–65</text>
<text text-anchor="middle" x="540" y="-1021.4" font-family="Arial" font-size="14.00" fill="#000000">(n = 63)</text>
</g>
<!-- mid2 -->
<!-- incl2&#45;&gt;mid2 -->
<g id="edge4" class="edge">
<title>incl2&#45;&gt;mid2</title>
<path fill="none" stroke="#000000" d="M540,-1003.3329C540,-955.8179 540,-869.5485 540,-866.8642"/>
</g>
<!-- incl3 -->
<g id="node3" class="node">
<title>incl3</title>
<polygon fill="none" stroke="#000000" points="1080,-730.2013 0,-730.2013 0,-668.9987 1080,-668.9987 1080,-730.2013"/>
<text text-anchor="middle" x="540" y="-703.8" font-family="Arial" font-size="14.00" fill="#000000">CMV positive</text>
<text text-anchor="middle" x="540" y="-687" font-family="Arial" font-size="14.00" fill="#000000">(n = 39)</text>
</g>
<!-- mid3 -->
<!-- incl3&#45;&gt;mid3 -->
<g id="edge7" class="edge">
<title>incl3&#45;&gt;mid3</title>
<path fill="none" stroke="#000000" d="M540,-668.9329C540,-621.4179 540,-535.1485 540,-532.4642"/>
</g>
<!-- incl4 -->
<g id="node4" class="node">
<title>incl4</title>
<polygon fill="none" stroke="#000000" points="1080,-395.8013 0,-395.8013 0,-334.5987 1080,-334.5987 1080,-395.8013"/>
<text text-anchor="middle" x="540" y="-369.4" font-family="Arial" font-size="14.00" fill="#000000">Donor CMV positive</text>
<text text-anchor="middle" x="540" y="-352.6" font-family="Arial" font-size="14.00" fill="#000000">(n = 28)</text>
</g>
<!-- mid4 -->
<!-- incl4&#45;&gt;mid4 -->
<g id="edge10" class="edge">
<title>incl4&#45;&gt;mid4</title>
<path fill="none" stroke="#000000" d="M540,-334.5329C540,-287.0179 540,-200.7485 540,-198.0642"/>
</g>
<!-- incl5 -->
<g id="node5" class="node">
<title>incl5</title>
<polygon fill="none" stroke="#000000" points="1080,-61.4013 0,-61.4013 0,-.1987 1080,-.1987 1080,-61.4013"/>
<text text-anchor="middle" x="540" y="-35" font-family="Arial" font-size="14.00" fill="#000000">No prior transplant</text>
<text text-anchor="middle" x="540" y="-18.2" font-family="Arial" font-size="14.00" fill="#000000">(n = 23)</text>
</g>
<!-- excl1 -->
<g id="node6" class="node">
<title>excl1</title>
<polygon fill="none" stroke="#000000" stroke-dasharray="5,2" points="1476,-1229.5004 756,-1229.5004 756,-1172.8996 1476,-1172.8996 1476,-1229.5004"/>
<text text-anchor="middle" x="1116" y="-1204.8" font-family="Arial" font-size="12.00" fill="#000000">Excluded: Outside 18–65</text>
<text text-anchor="middle" x="1116" y="-1190.4" font-family="Arial" font-size="12.00" fill="#000000">(n = 1)</text>
</g>
<!-- excl2 -->
<g id="node7" class="node">
<title>excl2</title>
<polygon fill="none" stroke="#000000" stroke-dasharray="5,2" points="1476,-895.1004 756,-895.1004 756,-838.4996 1476,-838.4996 1476,-895.1004"/>
<text text-anchor="middle" x="1116" y="-870.4" font-family="Arial" font-size="12.00" fill="#000000">Excluded: CMV negative</text>
<text text-anchor="middle" x="1116" y="-856" font-family="Arial" font-size="12.00" fill="#000000">(n = 24)</text>
</g>
<!-- excl3 -->
<g id="node8" class="node">
<title>excl3</title>
<polygon fill="none" stroke="#000000" stroke-dasharray="5,2" points="1476,-560.7004 756,-560.7004 756,-504.0996 1476,-504.0996 1476,-560.7004"/>
<text text-anchor="middle" x="1116" y="-536" font-family="Arial" font-size="12.00" fill="#000000">Excluded: Donor CMV negative</text>
<text text-anchor="middle" x="1116" y="-521.6" font-family="Arial" font-size="12.00" fill="#000000">(n = 11)</text>
</g>
<!-- excl4 -->
<g id="node9" class="node">
<title>excl4</title>
<polygon fill="none" stroke="#000000" stroke-dasharray="5,2" points="1476,-226.3004 756,-226.3004 756,-169.6996 1476,-169.6996 1476,-226.3004"/>
<text text-anchor="middle" x="1116" y="-201.6" font-family="Arial" font-size="12.00" fill="#000000">Excluded: Prior transplant</text>
<text text-anchor="middle" x="1116" y="-187.2" font-family="Arial" font-size="12.00" fill="#000000">(n = 5)</text>
</g>
<!-- mid1&#45;&gt;incl2 -->
<g id="edge2" class="edge">
<title>mid1&#45;&gt;incl2</title>
<path fill="none" stroke="#000000" d="M540,-1201.0788C540,-1197.6793 540,-1123.5213 540,-1075.1571"/>
<polygon fill="#000000" stroke="#000000" points="543.5001,-1074.9656 540,-1064.9656 536.5001,-1074.9656 543.5001,-1074.9656"/>
</g>
<!-- mid1&#45;&gt;excl1 -->
<g id="edge3" class="edge">
<title>mid1&#45;&gt;excl1</title>
<path fill="none" stroke="#666666" d="M540.2813,-1201.2C608.7834,-1201.2 677.2856,-1201.2 745.7878,-1201.2"/>
<polygon fill="#666666" stroke="#666666" points="745.8947,-1204.7001 755.8947,-1201.2 745.8946,-1197.7001 745.8947,-1204.7001"/>
</g>
<!-- mid2&#45;&gt;incl3 -->
<g id="edge5" class="edge">
<title>mid2&#45;&gt;incl3</title>
<path fill="none" stroke="#000000" d="M540,-866.6788C540,-863.2793 540,-789.1213 540,-740.7571"/>
<polygon fill="#000000" stroke="#000000" points="543.5001,-740.5656 540,-730.5656 536.5001,-740.5656 543.5001,-740.5656"/>
</g>
<!-- mid2&#45;&gt;excl2 -->
<g id="edge6" class="edge">
<title>mid2&#45;&gt;excl2</title>
<path fill="none" stroke="#666666" d="M540.2813,-866.8C608.7834,-866.8 677.2856,-866.8 745.7878,-866.8"/>
<polygon fill="#666666" stroke="#666666" points="745.8947,-870.3001 755.8947,-866.8 745.8946,-863.3001 745.8947,-870.3001"/>
</g>
<!-- mid3&#45;&gt;incl4 -->
<g id="edge8" class="edge">
<title>mid3&#45;&gt;incl4</title>
<path fill="none" stroke="#000000" d="M540,-532.2788C540,-528.8793 540,-454.7213 540,-406.3571"/>
<polygon fill="#000000" stroke="#000000" points="543.5001,-406.1656 540,-396.1656 536.5001,-406.1656 543.5001,-406.1656"/>
</g>
<!-- mid3&#45;&gt;excl3 -->
<g id="edge9" class="edge">
<title>mid3&#45;&gt;excl3</title>
<path fill="none" stroke="#666666" d="M540.2813,-532.4C608.7834,-532.4 677.2856,-532.4 745.7878,-532.4"/>
<polygon fill="#666666" stroke="#666666" points="745.8947,-535.9001 755.8947,-532.4 745.8946,-528.9001 745.8947,-535.9001"/>
</g>
<!-- mid4&#45;&gt;incl5 -->
<g id="edge11" class="edge">
<title>mid4&#45;&gt;incl5</title>
<path fill="none" stroke="#000000" d="M540,-197.8788C540,-194.4793 540,-120.3213 540,-71.9571"/>
<polygon fill="#000000" stroke="#000000" points="543.5001,-71.7656 540,-61.7656 536.5001,-71.7656 543.5001,-71.7656"/>
</g>
<!-- mid4&#45;&gt;excl4 -->
<g id="edge12" class="edge">
<title>mid4&#45;&gt;excl4</title>
<path fill="none" stroke="#666666" d="M540.2813,-198C608.7834,-198 677.2856,-198 745.7878,-198"/>
<polygon fill="#666666" stroke="#666666" points="745.8947,-201.5001 755.8947,-198 745.8946,-194.5001 745.8947,-201.5001"/>
</g>
</g>
</svg>

