<?xml version="1.0" encoding="UTF-8" standalone="no"?>
<!DOCTYPE svg PUBLIC "-//W3C//DTD SVG 1.1//EN"
 "http://www.w3.org/Graphics/SVG/1.1/DTD/svg11.dtd">
<!-- Generated by graphviz version 2.40.1 (20161225.0304)
 -->
<!-- Title: strobe Pages: 1 -->
<svg width="1031pt" height="6488pt"
 viewBox="0.00 0.00 1030.65 6488.00" xmlns="http://www.w3.org/2000/svg" xmlns:xlink="http://www.w3.org/1999/xlink">
<g id="graph0" class="graph" transform="scale(1 1) rotate(0) translate(4 6484)">
<title>strobe</title>
<polygon fill="#ffffff" stroke="transparent" points="-4,4 -4,-6484 1026.646,-6484 1026.646,4 -4,4"/>
<!-- incl1 -->
<g id="node1" class="node">
<title>incl1</title>
<polygon fill="none" stroke="#000000" points="247.72,-6480 193.672,-6480 193.672,-5760 247.72,-5760 247.72,-6480"/>
<text text-anchor="middle" x="220.696" y="-6132" font-family="Helvetica,sans-Serif" font-size="40.00" fill="#000000">All transplant recipients</text>
<text text-anchor="middle" x="220.696" y="-6084" font-family="Helvetica,sans-Serif" font-size="40.00" fill="#000000">(n = 64)</text>
</g>
<!-- mid1 -->
<!-- incl1&#45;&gt;mid1 -->
<g id="edge1" class="edge">
<title>incl1&#45;&gt;mid1</title>
<path fill="none" stroke="#000000" d="M220.696,-5759.7363C220.696,-5582.6354 220.696,-5405.6195 220.696,-5400.131"/>
</g>
<!-- incl2 -->
<g id="node2" class="node">
<title>incl2</title>
<polygon fill="none" stroke="#000000" points="247.6445,-5040 193.7475,-5040 193.7475,-4320 247.6445,-4320 247.6445,-5040"/>
<text text-anchor="middle" x="220.696" y="-4692" font-family="Helvetica,sans-Serif" font-size="40.00" fill="#000000">Age 18–65</text>
<text text-anchor="middle" x="220.696" y="-4644" font-family="Helvetica,sans-Serif" font-size="40.00" fill="#000000">(n = 63)</text>
</g>
<!-- mid2 -->
<!-- incl2&#45;&gt;mid2 -->
<g id="edge4" class="edge">
<title>incl2&#45;&gt;mid2</title>
<path fill="none" stroke="#000000" d="M220.696,-4319.7363C220.696,-4142.6354 220.696,-3965.6195 220.696,-3960.131"/>
</g>
<!-- incl3 -->
<g id="node3" class="node">
<title>incl3</title>
<polygon fill="none" stroke="#000000" points="247.651,-3600 193.741,-3600 193.741,-2880 247.651,-2880 247.651,-3600"/>
<text text-anchor="middle" x="220.696" y="-3252" font-family="Helvetica,sans-Serif" font-size="40.00" fill="#000000">CMV positive</text>
<text text-anchor="middle" x="220.696" y="-3204" font-family="Helvetica,sans-Serif" font-size="40.00" fill="#000000">(n = 39)</text>
</g>
<!-- mid3 -->
<!-- incl3&#45;&gt;mid3 -->
<g id="edge7" class="edge">
<title>incl3&#45;&gt;mid3</title>
<path fill="none" stroke="#000000" d="M220.696,-2879.7363C220.696,-2702.6354 220.696,-2525.6195 220.696,-2520.131"/>
</g>
<!-- incl4 -->
<g id="node4" class="node">
<title>incl4</title>
<polygon fill="none" stroke="#000000" points="247.6662,-2160 193.7258,-2160 193.7258,-1440 247.6662,-1440 247.6662,-2160"/>
<text text-anchor="middle" x="220.696" y="-1812" font-family="Helvetica,sans-Serif" font-size="40.00" fill="#000000">Donor CMV positive</text>
<text text-anchor="middle" x="220.696" y="-1764" font-family="Helvetica,sans-Serif" font-size="40.00" fill="#000000">(n = 28)</text>
</g>
<!-- mid4 -->
<!-- incl4&#45;&gt;mid4 -->
<g id="edge10" class="edge">
<title>incl4&#45;&gt;mid4</title>
<path fill="none" stroke="#000000" d="M220.696,-1439.7363C220.696,-1262.6354 220.696,-1085.6195 220.696,-1080.131"/>
</g>
<!-- incl5 -->
<g id="node5" class="node">
<title>incl5</title>
<polygon fill="none" stroke="#000000" points="247.6906,-720 193.7014,-720 193.7014,0 247.6906,0 247.6906,-720"/>
<text text-anchor="middle" x="220.696" y="-372" font-family="Helvetica,sans-Serif" font-size="40.00" fill="#000000">No prior transplant</text>
<text text-anchor="middle" x="220.696" y="-324" font-family="Helvetica,sans-Serif" font-size="40.00" fill="#000000">(n = 23)</text>
</g>
<!-- excl1 -->
<g id="node6" class="node">
<title>excl1</title>
<polygon fill="none" stroke="#000000" stroke-dasharray="5,2" points="706.6933,-5652 652.6987,-5652 652.6987,-5148 706.6933,-5148 706.6933,-5652"/>
<text text-anchor="middle" x="679.696" y="-5412" font-family="Helvetica,sans-Serif" font-size="40.00" fill="#000000">Excluded: Outside 18–65</text>
<text text-anchor="middle" x="679.696" y="-5364" font-family="Helvetica,sans-Serif" font-size="40.00" fill="#000000">(n = 1)</text>
</g>
<!-- excl2 -->
<g id="node7" class="node">
<title>excl2</title>
<polygon fill="none" stroke="#000000" stroke-dasharray="5,2" points="696.6893,-4212 642.7027,-4212 642.7027,-3708 696.6893,-3708 696.6893,-4212"/>
<text text-anchor="middle" x="669.696" y="-3972" font-family="Helvetica,sans-Serif" font-size="40.00" fill="#000000">Excluded: CMV negative</text>
<text text-anchor="middle" x="669.696" y="-3924" font-family="Helvetica,sans-Serif" font-size="40.00" fill="#000000">(n = 24)</text>
</g>
<!-- excl3 -->
<g id="node8" class="node">
<title>excl3</title>
<polygon fill="none" stroke="#000000" stroke-dasharray="5,2" points="756.6914,-2772 702.7006,-2772 702.7006,-2268 756.6914,-2268 756.6914,-2772"/>
<text text-anchor="middle" x="729.696" y="-2532" font-family="Helvetica,sans-Serif" font-size="40.00" fill="#000000">Excluded: Donor CMV negative</text>
<text text-anchor="middle" x="729.696" y="-2484" font-family="Helvetica,sans-Serif" font-size="40.00" fill="#000000">(n = 11)</text>
</g>
<!-- excl4 -->
<g id="node9" class="node">
<title>excl4</title>
<polygon fill="none" stroke="#000000" stroke-dasharray="5,2" points="706.6887,-1332 652.7033,-1332 652.7033,-828 706.6887,-828 706.6887,-1332"/>
<text text-anchor="middle" x="679.696" y="-1092" font-family="Helvetica,sans-Serif" font-size="40.00" fill="#000000">Excluded: Prior transplant</text>
<text text-anchor="middle" x="679.696" y="-1044" font-family="Helvetica,sans-Serif" font-size="40.00" fill="#000000">(n = 5)</text>
</g>
<!-- mid1&#45;&gt;incl2 -->
<g id="edge2" class="edge">
<title>mid1&#45;&gt;incl2</title>
<path fill="none" stroke="#000000" d="M220.696,-5399.8689C220.696,-5394.4819 220.696,-5224.0203 220.696,-5050.3456"/>
<polygon fill="#000000" stroke="#000000" points="224.1961,-5050.2286 220.696,-5040.2287 217.1961,-5050.2287 224.1961,-5050.2286"/>
</g>
<!-- mid1&#45;&gt;excl1 -->
<g id="edge3" class="edge">
<title>mid1&#45;&gt;excl1</title>
<path fill="none" stroke="#666666" d="M221.1442,-5400C361.5204,-5400 501.8966,-5400 642.2728,-5400"/>
<polygon fill="#666666" stroke="#666666" points="642.38,-5403.5001 652.3799,-5400 642.3799,-5396.5001 642.38,-5403.5001"/>
</g>
<!-- mid2&#45;&gt;incl3 -->
<g id="edge5" class="edge">
<title>mid2&#45;&gt;incl3</title>
<path fill="none" stroke="#000000" d="M220.696,-3959.8689C220.696,-3954.4819 220.696,-3784.0203 220.696,-3610.3456"/>
<polygon fill="#000000" stroke="#000000" points="224.1961,-3610.2286 220.696,-3600.2287 217.1961,-3610.2287 224.1961,-3610.2286"/>
</g>
<!-- mid2&#45;&gt;excl2 -->
<g id="edge6" class="edge">
<title>mid2&#45;&gt;excl2</title>
<path fill="none" stroke="#666666" d="M221.1345,-3960C358.1726,-3960 495.2107,-3960 632.2489,-3960"/>
<polygon fill="#666666" stroke="#666666" points="632.537,-3963.5001 642.537,-3960 632.537,-3956.5001 632.537,-3963.5001"/>
</g>
<!-- mid3&#45;&gt;incl4 -->
<g id="edge8" class="edge">
<title>mid3&#45;&gt;incl4</title>
<path fill="none" stroke="#000000" d="M220.696,-2519.8689C220.696,-2514.4819 220.696,-2344.0203 220.696,-2170.3456"/>
<polygon fill="#000000" stroke="#000000" points="224.1961,-2170.2286 220.696,-2160.2287 217.1961,-2170.2287 224.1961,-2170.2286"/>
</g>
<!-- mid3&#45;&gt;excl3 -->
<g id="edge9" class="edge">
<title>mid3&#45;&gt;excl3</title>
<path fill="none" stroke="#666666" d="M221.1931,-2520C378.144,-2520 535.0949,-2520 692.0457,-2520"/>
<polygon fill="#666666" stroke="#666666" points="692.3839,-2523.5001 702.3838,-2520 692.3838,-2516.5001 692.3839,-2523.5001"/>
</g>
<!-- mid4&#45;&gt;incl5 -->
<g id="edge11" class="edge">
<title>mid4&#45;&gt;incl5</title>
<path fill="none" stroke="#000000" d="M220.696,-1079.8689C220.696,-1074.4819 220.696,-904.0203 220.696,-730.3456"/>
<polygon fill="#000000" stroke="#000000" points="224.1961,-730.2286 220.696,-720.2287 217.1961,-730.2287 224.1961,-730.2286"/>
</g>
<!-- mid4&#45;&gt;excl4 -->
<g id="edge12" class="edge">
<title>mid4&#45;&gt;excl4</title>
<path fill="none" stroke="#666666" d="M221.1442,-1080C361.5204,-1080 501.8966,-1080 642.2728,-1080"/>
<polygon fill="#666666" stroke="#666666" points="642.38,-1083.5001 652.3799,-1080 642.3799,-1076.5001 642.38,-1083.5001"/>
</g>
</g>
</svg>

