<?xml version="1.0" encoding="UTF-8" standalone="no"?>
<!DOCTYPE svg PUBLIC "-//W3C//DTD SVG 1.1//EN"
 "http://www.w3.org/Graphics/SVG/1.1/DTD/svg11.dtd">
<!-- Generated by graphviz version 2.40.1 (20161225.0304)
 -->
<!-- Title: strobe Pages: 1 -->
<svg width="528pt" height="4112pt"
 viewBox="0.00 0.00 527.68 4112.00" xmlns="http://www.w3.org/2000/svg" xmlns:xlink="http://www.w3.org/1999/xlink">
<g id="graph0" class="graph" transform="scale(1 1) rotate(0) translate(4 4108)">
<title>strobe</title>
<polygon fill="#ffffff" stroke="transparent" points="-4,4 -4,-4108 523.685,-4108 523.685,4 -4,4"/>
<!-- incl1 -->
<g id="node1" class="node">
<title>incl1</title>
<polygon fill="none" stroke="#000000" points="216,-4104 0,-4104 0,-3744 216,-3744 216,-4104"/>
<text text-anchor="middle" x="108" y="-3928.2" font-family="Arial" font-size="14.00" fill="#000000">All transplant recipients</text>
<text text-anchor="middle" x="108" y="-3911.4" font-family="Arial" font-size="14.00" fill="#000000">(n = 64)</text>
</g>
<!-- mid1 -->
<!-- incl1&#45;&gt;mid1 -->
<g id="edge1" class="edge">
<title>incl1&#45;&gt;mid1</title>
<path fill="none" stroke="#000000" d="M108,-3743.7284C108,-3613.9509 108,-3460.8657 108,-3456.1135"/>
</g>
<!-- incl2 -->
<g id="node2" class="node">
<title>incl2</title>
<polygon fill="none" stroke="#000000" points="216,-3168 0,-3168 0,-2808 216,-2808 216,-3168"/>
<text text-anchor="middle" x="108" y="-2992.2" font-family="Arial" font-size="14.00" fill="#000000">Age 18–65</text>
<text text-anchor="middle" x="108" y="-2975.4" font-family="Arial" font-size="14.00" fill="#000000">(n = 63)</text>
</g>
<!-- mid2 -->
<!-- incl2&#45;&gt;mid2 -->
<g id="edge4" class="edge">
<title>incl2&#45;&gt;mid2</title>
<path fill="none" stroke="#000000" d="M108,-2807.7284C108,-2677.9509 108,-2524.8657 108,-2520.1135"/>
</g>
<!-- incl3 -->
<g id="node3" class="node">
<title>incl3</title>
<polygon fill="none" stroke="#000000" points="216,-2232 0,-2232 0,-1872 216,-1872 216,-2232"/>
<text text-anchor="middle" x="108" y="-2056.2" font-family="Arial" font-size="14.00" fill="#000000">CMV positive</text>
<text text-anchor="middle" x="108" y="-2039.4" font-family="Arial" font-size="14.00" fill="#000000">(n = 39)</text>
</g>
<!-- mid3 -->
<!-- incl3&#45;&gt;mid3 -->
<g id="edge7" class="edge">
<title>incl3&#45;&gt;mid3</title>
<path fill="none" stroke="#000000" d="M108,-1871.7284C108,-1741.9509 108,-1588.8657 108,-1584.1135"/>
</g>
<!-- incl4 -->
<g id="node4" class="node">
<title>incl4</title>
<polygon fill="none" stroke="#000000" points="216,-1296 0,-1296 0,-936 216,-936 216,-1296"/>
<text text-anchor="middle" x="108" y="-1120.2" font-family="Arial" font-size="14.00" fill="#000000">Donor CMV positive</text>
<text text-anchor="middle" x="108" y="-1103.4" font-family="Arial" font-size="14.00" fill="#000000">(n = 28)</text>
</g>
<!-- mid4 -->
<!-- incl4&#45;&gt;mid4 -->
<g id="edge10" class="edge">
<title>incl4&#45;&gt;mid4</title>
<path fill="none" stroke="#000000" d="M108,-935.7284C108,-805.9509 108,-652.8657 108,-648.1135"/>
</g>
<!-- incl5 -->
<g id="node5" class="node">
<title>incl5</title>
<polygon fill="none" stroke="#000000" points="216,-360 0,-360 0,0 216,0 216,-360"/>
<text text-anchor="middle" x="108" y="-184.2" font-family="Arial" font-size="14.00" fill="#000000">No prior transplant</text>
<text text-anchor="middle" x="108" y="-167.4" font-family="Arial" font-size="14.00" fill="#000000">(n = 23)</text>
</g>
<!-- excl1 -->
<g id="node6" class="node">
<title>excl1</title>
<polygon fill="none" stroke="#000000" stroke-dasharray="5,2" points="504,-3636 324,-3636 324,-3276 504,-3276 504,-3636"/>
<text text-anchor="middle" x="414" y="-3459.6" font-family="Arial" font-size="12.00" fill="#000000">Excluded: Outside 18–65</text>
<text text-anchor="middle" x="414" y="-3445.2" font-family="Arial" font-size="12.00" fill="#000000">(n = 1)</text>
</g>
<!-- excl2 -->
<g id="node7" class="node">
<title>excl2</title>
<polygon fill="none" stroke="#000000" stroke-dasharray="5,2" points="504,-2700 324,-2700 324,-2340 504,-2340 504,-2700"/>
<text text-anchor="middle" x="414" y="-2523.6" font-family="Arial" font-size="12.00" fill="#000000">Excluded: CMV negative</text>
<text text-anchor="middle" x="414" y="-2509.2" font-family="Arial" font-size="12.00" fill="#000000">(n = 24)</text>
</g>
<!-- excl3 -->
<g id="node8" class="node">
<title>excl3</title>
<polygon fill="none" stroke="#000000" stroke-dasharray="5,2" points="519.8704,-1764 324.1296,-1764 324.1296,-1404 519.8704,-1404 519.8704,-1764"/>
<text text-anchor="middle" x="422" y="-1587.6" font-family="Arial" font-size="12.00" fill="#000000">Excluded: Donor CMV negative</text>
<text text-anchor="middle" x="422" y="-1573.2" font-family="Arial" font-size="12.00" fill="#000000">(n = 11)</text>
</g>
<!-- excl4 -->
<g id="node9" class="node">
<title>excl4</title>
<polygon fill="none" stroke="#000000" stroke-dasharray="5,2" points="504,-828 324,-828 324,-468 504,-468 504,-828"/>
<text text-anchor="middle" x="414" y="-651.6" font-family="Arial" font-size="12.00" fill="#000000">Excluded: Prior transplant</text>
<text text-anchor="middle" x="414" y="-637.2" font-family="Arial" font-size="12.00" fill="#000000">(n = 5)</text>
</g>
<!-- mid1&#45;&gt;incl2 -->
<g id="edge2" class="edge">
<title>mid1&#45;&gt;incl2</title>
<path fill="none" stroke="#000000" d="M108,-3455.9148C108,-3451.8935 108,-3306.3581 108,-3178.6637"/>
<polygon fill="#000000" stroke="#000000" points="111.5001,-3178.3317 108,-3168.3317 104.5001,-3178.3317 111.5001,-3178.3317"/>
</g>
<!-- mid1&#45;&gt;excl1 -->
<g id="edge3" class="edge">
<title>mid1&#45;&gt;excl1</title>
<path fill="none" stroke="#666666" d="M108.2988,-3456C176.7787,-3456 245.2586,-3456 313.7384,-3456"/>
<polygon fill="#666666" stroke="#666666" points="313.8421,-3459.5001 323.842,-3456 313.842,-3452.5001 313.8421,-3459.5001"/>
</g>
<!-- mid2&#45;&gt;incl3 -->
<g id="edge5" class="edge">
<title>mid2&#45;&gt;incl3</title>
<path fill="none" stroke="#000000" d="M108,-2519.9148C108,-2515.8935 108,-2370.3581 108,-2242.6637"/>
<polygon fill="#000000" stroke="#000000" points="111.5001,-2242.3317 108,-2232.3317 104.5001,-2242.3317 111.5001,-2242.3317"/>
</g>
<!-- mid2&#45;&gt;excl2 -->
<g id="edge6" class="edge">
<title>mid2&#45;&gt;excl2</title>
<path fill="none" stroke="#666666" d="M108.2988,-2520C176.7787,-2520 245.2586,-2520 313.7384,-2520"/>
<polygon fill="#666666" stroke="#666666" points="313.8421,-2523.5001 323.842,-2520 313.842,-2516.5001 313.8421,-2523.5001"/>
</g>
<!-- mid3&#45;&gt;incl4 -->
<g id="edge8" class="edge">
<title>mid3&#45;&gt;incl4</title>
<path fill="none" stroke="#000000" d="M108,-1583.9148C108,-1579.8935 108,-1434.3581 108,-1306.6637"/>
<polygon fill="#000000" stroke="#000000" points="111.5001,-1306.3317 108,-1296.3317 104.5001,-1306.3317 111.5001,-1306.3317"/>
</g>
<!-- mid3&#45;&gt;excl3 -->
<g id="edge9" class="edge">
<title>mid3&#45;&gt;excl3</title>
<path fill="none" stroke="#666666" d="M108.3066,-1584C176.9223,-1584 245.5379,-1584 314.1535,-1584"/>
<polygon fill="#666666" stroke="#666666" points="314.2772,-1587.5001 324.2772,-1584 314.2771,-1580.5001 314.2772,-1587.5001"/>
</g>
<!-- mid4&#45;&gt;incl5 -->
<g id="edge11" class="edge">
<title>mid4&#45;&gt;incl5</title>
<path fill="none" stroke="#000000" d="M108,-647.9148C108,-643.8935 108,-498.3581 108,-370.6637"/>
<polygon fill="#000000" stroke="#000000" points="111.5001,-370.3317 108,-360.3317 104.5001,-370.3317 111.5001,-370.3317"/>
</g>
<!-- mid4&#45;&gt;excl4 -->
<g id="edge12" class="edge">
<title>mid4&#45;&gt;excl4</title>
<path fill="none" stroke="#666666" d="M108.2988,-648C176.7787,-648 245.2586,-648 313.7384,-648"/>
<polygon fill="#666666" stroke="#666666" points="313.8421,-651.5001 323.842,-648 313.842,-644.5001 313.8421,-651.5001"/>
</g>
</g>
</svg>

