<?xml version="1.0" encoding="UTF-8" standalone="no"?>
<!DOCTYPE svg PUBLIC "-//W3C//DTD SVG 1.1//EN"
 "http://www.w3.org/Graphics/SVG/1.1/DTD/svg11.dtd">
<!-- Generated by graphviz version 2.40.1 (20161225.0304)
 -->
<!-- Title: strobe Pages: 1 -->
<svg width="3104pt" height="2364pt"
 viewBox="0.00 0.00 3104.00 2364.00" xmlns="http://www.w3.org/2000/svg" xmlns:xlink="http://www.w3.org/1999/xlink">
<g id="graph0" class="graph" transform="scale(1 1) rotate(0) translate(4 2360)">
<title>strobe</title>
<polygon fill="#ffffff" stroke="transparent" points="-4,4 -4,-2360 3100,-2360 3100,4 -4,4"/>
<!-- incl1 -->
<g id="node1" class="node">
<title>incl1</title>
<polygon fill="none" stroke="#000000" points="2268,-2356 828,-2356 828,-2112 2268,-2112 2268,-2356"/>
<text text-anchor="middle" x="1548" y="-2261" font-family="Arial" font-size="90.00" fill="#000000">Initial CMV transplant cohort</text>
<text text-anchor="middle" x="1548" y="-2153" font-family="Arial" font-size="90.00" fill="#000000">(n = 64)</text>
</g>
<!-- mid1 -->
<!-- incl1&#45;&gt;mid1 -->
<g id="edge1" class="edge">
<title>incl1&#45;&gt;mid1</title>
<path fill="none" stroke="#000000" d="M1548,-2111.8754C1548,-2011.7979 1548,-1886.0001 1548,-1882.0933"/>
</g>
<!-- incl2 -->
<g id="node2" class="node">
<title>incl2</title>
<polygon fill="none" stroke="#000000" points="2268,-1652 828,-1652 828,-1408 2268,-1408 2268,-1652"/>
<text text-anchor="middle" x="1548" y="-1557" font-family="Arial" font-size="90.00" fill="#000000">Age <U+2265> 30</text>
<text text-anchor="middle" x="1548" y="-1449" font-family="Arial" font-size="90.00" fill="#000000">(n = 63)</text>
</g>
<!-- mid2 -->
<!-- incl2&#45;&gt;mid2 -->
<g id="edge4" class="edge">
<title>incl2&#45;&gt;mid2</title>
<path fill="none" stroke="#000000" d="M1548,-1407.8754C1548,-1307.7979 1548,-1182.0001 1548,-1178.0933"/>
</g>
<!-- incl3 -->
<g id="node3" class="node">
<title>incl3</title>
<polygon fill="none" stroke="#000000" points="2268,-948 828,-948 828,-704 2268,-704 2268,-948"/>
<text text-anchor="middle" x="1548" y="-853" font-family="Arial" font-size="90.00" fill="#000000">Recipient CMV positive</text>
<text text-anchor="middle" x="1548" y="-745" font-family="Arial" font-size="90.00" fill="#000000">(n = 40)</text>
</g>
<!-- incl4 -->
<g id="node4" class="node">
<title>incl4</title>
<polygon fill="none" stroke="#000000" points="2268,-596 828,-596 828,-352 2268,-352 2268,-596"/>
<text text-anchor="middle" x="1548" y="-501" font-family="Arial" font-size="90.00" fill="#000000">NA</text>
<text text-anchor="middle" x="1548" y="-393" font-family="Arial" font-size="90.00" fill="#000000">(n = 40)</text>
</g>
<!-- incl3&#45;&gt;incl4 -->
<g id="edge7" class="edge">
<title>incl3&#45;&gt;incl4</title>
<path fill="none" stroke="#000000" d="M1548,-703.8754C1548,-672.4301 1548,-638.4456 1548,-606.5008"/>
<polygon fill="#000000" stroke="#000000" points="1551.5001,-606.2065 1548,-596.2066 1544.5001,-606.2066 1551.5001,-606.2065"/>
</g>
<!-- incl5 -->
<g id="node5" class="node">
<title>incl5</title>
<polygon fill="none" stroke="#000000" points="1440,-244 0,-244 0,0 1440,0 1440,-244"/>
<text text-anchor="middle" x="720" y="-149" font-family="Arial" font-size="90.00" fill="#000000">cgvhd: 0</text>
<text text-anchor="middle" x="720" y="-41" font-family="Arial" font-size="90.00" fill="#000000">(n = 22)</text>
</g>
<!-- incl4&#45;&gt;incl5 -->
<g id="edge8" class="edge">
<title>incl4&#45;&gt;incl5</title>
<path fill="none" stroke="#000000" d="M1261.0197,-351.9987C1182.1214,-318.4574 1096.4082,-282.0189 1016.9603,-248.244"/>
<polygon fill="#000000" stroke="#000000" points="1017.8757,-244.8301 1007.3035,-244.1387 1015.1371,-251.2721 1017.8757,-244.8301"/>
</g>
<!-- incl6 -->
<g id="node6" class="node">
<title>incl6</title>
<polygon fill="none" stroke="#000000" points="3096,-244 1656,-244 1656,0 3096,0 3096,-244"/>
<text text-anchor="middle" x="2376" y="-149" font-family="Arial" font-size="90.00" fill="#000000">cgvhd: 1</text>
<text text-anchor="middle" x="2376" y="-41" font-family="Arial" font-size="90.00" fill="#000000">(n = 18)</text>
</g>
<!-- incl4&#45;&gt;incl6 -->
<g id="edge9" class="edge">
<title>incl4&#45;&gt;incl6</title>
<path fill="none" stroke="#000000" d="M1834.9803,-351.9987C1913.8786,-318.4574 1999.5918,-282.0189 2079.0397,-248.244"/>
<polygon fill="#000000" stroke="#000000" points="2080.8629,-251.2721 2088.6965,-244.1387 2078.1243,-244.8301 2080.8629,-251.2721"/>
</g>
<!-- excl1 -->
<g id="node7" class="node">
<title>excl1</title>
<polygon fill="none" stroke="#000000" stroke-dasharray="5,2" points="2844,-2004 1764,-2004 1764,-1760 2844,-1760 2844,-2004"/>
<text text-anchor="middle" x="2304" y="-1909" font-family="Arial" font-size="90.00" fill="#000000">Excluded: Age &lt; 30</text>
<text text-anchor="middle" x="2304" y="-1801" font-family="Arial" font-size="90.00" fill="#000000">(n = 1)</text>
</g>
<!-- excl2 -->
<g id="node8" class="node">
<title>excl2</title>
<polygon fill="none" stroke="#000000" stroke-dasharray="5,2" points="2844,-1300 1764,-1300 1764,-1056 2844,-1056 2844,-1300"/>
<text text-anchor="middle" x="2304" y="-1205" font-family="Arial" font-size="90.00" fill="#000000">Excluded: CMV negative</text>
<text text-anchor="middle" x="2304" y="-1097" font-family="Arial" font-size="90.00" fill="#000000">(n = 23)</text>
</g>
<!-- mid1&#45;&gt;incl2 -->
<g id="edge2" class="edge">
<title>mid1&#45;&gt;incl2</title>
<path fill="none" stroke="#000000" d="M1548,-1881.9359C1548,-1878.792 1548,-1760.6446 1548,-1662.1059"/>
<polygon fill="#000000" stroke="#000000" points="1551.5001,-1662.0282 1548,-1652.0283 1544.5001,-1662.0283 1551.5001,-1662.0282"/>
</g>
<!-- mid1&#45;&gt;excl1 -->
<g id="edge3" class="edge">
<title>mid1&#45;&gt;excl1</title>
<path fill="none" stroke="#666666" d="M1548.3691,-1882C1616.8267,-1882 1685.2842,-1882 1753.7417,-1882"/>
<polygon fill="#666666" stroke="#666666" points="1753.842,-1885.5001 1763.842,-1882 1753.842,-1878.5001 1753.842,-1885.5001"/>
</g>
<!-- mid2&#45;&gt;incl3 -->
<g id="edge5" class="edge">
<title>mid2&#45;&gt;incl3</title>
<path fill="none" stroke="#000000" d="M1548,-1177.9359C1548,-1174.792 1548,-1056.6446 1548,-958.1059"/>
<polygon fill="#000000" stroke="#000000" points="1551.5001,-958.0282 1548,-948.0283 1544.5001,-958.0283 1551.5001,-958.0282"/>
</g>
<!-- mid2&#45;&gt;excl2 -->
<g id="edge6" class="edge">
<title>mid2&#45;&gt;excl2</title>
<path fill="none" stroke="#666666" d="M1548.3691,-1178C1616.8267,-1178 1685.2842,-1178 1753.7417,-1178"/>
<polygon fill="#666666" stroke="#666666" points="1753.842,-1181.5001 1763.842,-1178 1753.842,-1174.5001 1753.842,-1181.5001"/>
</g>
</g>
</svg>

