<?xml version="1.0" encoding="UTF-8" standalone="no"?>
<!DOCTYPE svg PUBLIC "-//W3C//DTD SVG 1.1//EN"
 "http://www.w3.org/Graphics/SVG/1.1/DTD/svg11.dtd">
<!-- Generated by graphviz version 2.40.1 (20161225.0304)
 -->
<!-- Title: strobe Pages: 1 -->
<svg width="556pt" height="1450pt"
 viewBox="0.00 0.00 555.63 1450.40" xmlns="http://www.w3.org/2000/svg" xmlns:xlink="http://www.w3.org/1999/xlink">
<g id="graph0" class="graph" transform="scale(1 1) rotate(0) translate(4 1446.4)">
<title>strobe</title>
<polygon fill="#ffffff" stroke="transparent" points="-4,4 -4,-1446.4 551.6325,-1446.4 551.6325,4 -4,4"/>
<!-- incl1 -->
<g id="node1" class="node">
<title>incl1</title>
<polygon fill="none" stroke="#000000" points="216,-1442.6012 0,-1442.6012 0,-1375.7988 216,-1375.7988 216,-1442.6012"/>
<text text-anchor="middle" x="108" y="-1414" font-family="Arial" font-size="16.00" fill="#000000">All transplant recipients</text>
<text text-anchor="middle" x="108" y="-1394.8" font-family="Arial" font-size="16.00" fill="#000000">(n = 64)</text>
</g>
<!-- mid1 -->
<!-- incl1&#45;&gt;mid1 -->
<g id="edge1" class="edge">
<title>incl1&#45;&gt;mid1</title>
<path fill="none" stroke="#000000" d="M108,-1375.6284C108,-1326.3553 108,-1239.9523 108,-1237.2642"/>
</g>
<!-- incl2 -->
<g id="node2" class="node">
<title>incl2</title>
<polygon fill="none" stroke="#000000" points="216,-1098.6012 0,-1098.6012 0,-1031.7988 216,-1031.7988 216,-1098.6012"/>
<text text-anchor="middle" x="108" y="-1070" font-family="Arial" font-size="16.00" fill="#000000">Age 18–65</text>
<text text-anchor="middle" x="108" y="-1050.8" font-family="Arial" font-size="16.00" fill="#000000">(n = 63)</text>
</g>
<!-- mid2 -->
<!-- incl2&#45;&gt;mid2 -->
<g id="edge4" class="edge">
<title>incl2&#45;&gt;mid2</title>
<path fill="none" stroke="#000000" d="M108,-1031.6284C108,-982.3553 108,-895.9523 108,-893.2642"/>
</g>
<!-- incl3 -->
<g id="node3" class="node">
<title>incl3</title>
<polygon fill="none" stroke="#000000" points="216,-754.6012 0,-754.6012 0,-687.7988 216,-687.7988 216,-754.6012"/>
<text text-anchor="middle" x="108" y="-726" font-family="Arial" font-size="16.00" fill="#000000">CMV positive</text>
<text text-anchor="middle" x="108" y="-706.8" font-family="Arial" font-size="16.00" fill="#000000">(n = 39)</text>
</g>
<!-- mid3 -->
<!-- incl3&#45;&gt;mid3 -->
<g id="edge7" class="edge">
<title>incl3&#45;&gt;mid3</title>
<path fill="none" stroke="#000000" d="M108,-687.6284C108,-638.3553 108,-551.9523 108,-549.2642"/>
</g>
<!-- incl4 -->
<g id="node4" class="node">
<title>incl4</title>
<polygon fill="none" stroke="#000000" points="216,-410.6012 0,-410.6012 0,-343.7988 216,-343.7988 216,-410.6012"/>
<text text-anchor="middle" x="108" y="-382" font-family="Arial" font-size="16.00" fill="#000000">Donor CMV positive</text>
<text text-anchor="middle" x="108" y="-362.8" font-family="Arial" font-size="16.00" fill="#000000">(n = 28)</text>
</g>
<!-- mid4 -->
<!-- incl4&#45;&gt;mid4 -->
<g id="edge10" class="edge">
<title>incl4&#45;&gt;mid4</title>
<path fill="none" stroke="#000000" d="M108,-343.6284C108,-294.3553 108,-207.9523 108,-205.2642"/>
</g>
<!-- incl5 -->
<g id="node5" class="node">
<title>incl5</title>
<polygon fill="none" stroke="#000000" points="216,-66.6012 0,-66.6012 0,.2012 216,.2012 216,-66.6012"/>
<text text-anchor="middle" x="108" y="-38" font-family="Arial" font-size="16.00" fill="#000000">No prior transplant</text>
<text text-anchor="middle" x="108" y="-18.8" font-family="Arial" font-size="16.00" fill="#000000">(n = 23)</text>
</g>
<!-- excl1 -->
<g id="node6" class="node">
<title>excl1</title>
<polygon fill="none" stroke="#000000" stroke-dasharray="5,2" points="512.2834,-1267.8013 323.7166,-1267.8013 323.7166,-1206.5987 512.2834,-1206.5987 512.2834,-1267.8013"/>
<text text-anchor="middle" x="418" y="-1241.4" font-family="Arial" font-size="14.00" fill="#000000">Excluded: Outside 18–65</text>
<text text-anchor="middle" x="418" y="-1224.6" font-family="Arial" font-size="14.00" fill="#000000">(n = 1)</text>
</g>
<!-- excl2 -->
<g id="node7" class="node">
<title>excl2</title>
<polygon fill="none" stroke="#000000" stroke-dasharray="5,2" points="505.7596,-923.8013 324.2404,-923.8013 324.2404,-862.5987 505.7596,-862.5987 505.7596,-923.8013"/>
<text text-anchor="middle" x="415" y="-897.4" font-family="Arial" font-size="14.00" fill="#000000">Excluded: CMV negative</text>
<text text-anchor="middle" x="415" y="-880.6" font-family="Arial" font-size="14.00" fill="#000000">(n = 24)</text>
</g>
<!-- excl3 -->
<g id="node8" class="node">
<title>excl3</title>
<polygon fill="none" stroke="#000000" stroke-dasharray="5,2" points="547.7652,-579.8013 324.2348,-579.8013 324.2348,-518.5987 547.7652,-518.5987 547.7652,-579.8013"/>
<text text-anchor="middle" x="436" y="-553.4" font-family="Arial" font-size="14.00" fill="#000000">Excluded: Donor CMV negative</text>
<text text-anchor="middle" x="436" y="-536.6" font-family="Arial" font-size="14.00" fill="#000000">(n = 11)</text>
</g>
<!-- excl4 -->
<g id="node9" class="node">
<title>excl4</title>
<polygon fill="none" stroke="#000000" stroke-dasharray="5,2" points="512.254,-235.8013 323.746,-235.8013 323.746,-174.5987 512.254,-174.5987 512.254,-235.8013"/>
<text text-anchor="middle" x="418" y="-209.4" font-family="Arial" font-size="14.00" fill="#000000">Excluded: Prior transplant</text>
<text text-anchor="middle" x="418" y="-192.6" font-family="Arial" font-size="14.00" fill="#000000">(n = 5)</text>
</g>
<!-- mid1&#45;&gt;incl2 -->
<g id="edge2" class="edge">
<title>mid1&#45;&gt;incl2</title>
<path fill="none" stroke="#000000" d="M108,-1237.0753C108,-1233.6089 108,-1158.6233 108,-1108.8531"/>
<polygon fill="#000000" stroke="#000000" points="111.5001,-1108.6502 108,-1098.6502 104.5001,-1108.6503 111.5001,-1108.6502"/>
</g>
<!-- mid1&#45;&gt;excl1 -->
<g id="edge3" class="edge">
<title>mid1&#45;&gt;excl1</title>
<path fill="none" stroke="#666666" d="M108.3027,-1237.2C176.7169,-1237.2 245.1311,-1237.2 313.5452,-1237.2"/>
<polygon fill="#666666" stroke="#666666" points="313.6391,-1240.7001 323.6391,-1237.2 313.6391,-1233.7001 313.6391,-1240.7001"/>
</g>
<!-- mid2&#45;&gt;incl3 -->
<g id="edge5" class="edge">
<title>mid2&#45;&gt;incl3</title>
<path fill="none" stroke="#000000" d="M108,-893.0753C108,-889.6089 108,-814.6233 108,-764.8531"/>
<polygon fill="#000000" stroke="#000000" points="111.5001,-764.6502 108,-754.6502 104.5001,-764.6503 111.5001,-764.6502"/>
</g>
<!-- mid2&#45;&gt;excl2 -->
<g id="edge6" class="edge">
<title>mid2&#45;&gt;excl2</title>
<path fill="none" stroke="#666666" d="M108.2998,-893.2C176.9083,-893.2 245.5168,-893.2 314.1253,-893.2"/>
<polygon fill="#666666" stroke="#666666" points="314.2479,-896.7001 324.2479,-893.2 314.2479,-889.7001 314.2479,-896.7001"/>
</g>
<!-- mid3&#45;&gt;incl4 -->
<g id="edge8" class="edge">
<title>mid3&#45;&gt;incl4</title>
<path fill="none" stroke="#000000" d="M108,-549.0753C108,-545.6089 108,-470.6233 108,-420.8531"/>
<polygon fill="#000000" stroke="#000000" points="111.5001,-420.6502 108,-410.6502 104.5001,-420.6503 111.5001,-420.6502"/>
</g>
<!-- mid3&#45;&gt;excl3 -->
<g id="edge9" class="edge">
<title>mid3&#45;&gt;excl3</title>
<path fill="none" stroke="#666666" d="M108.3203,-549.2C176.9452,-549.2 245.5702,-549.2 314.1951,-549.2"/>
<polygon fill="#666666" stroke="#666666" points="314.3201,-552.7001 324.3201,-549.2 314.3201,-545.7001 314.3201,-552.7001"/>
</g>
<!-- mid4&#45;&gt;incl5 -->
<g id="edge11" class="edge">
<title>mid4&#45;&gt;incl5</title>
<path fill="none" stroke="#000000" d="M108,-205.0753C108,-201.6089 108,-126.6233 108,-76.8531"/>
<polygon fill="#000000" stroke="#000000" points="111.5001,-76.6502 108,-66.6502 104.5001,-76.6503 111.5001,-76.6502"/>
</g>
<!-- mid4&#45;&gt;excl4 -->
<g id="edge12" class="edge">
<title>mid4&#45;&gt;excl4</title>
<path fill="none" stroke="#666666" d="M108.3027,-205.2C176.7169,-205.2 245.1311,-205.2 313.5452,-205.2"/>
<polygon fill="#666666" stroke="#666666" points="313.6391,-208.7001 323.6391,-205.2 313.6391,-201.7001 313.6391,-208.7001"/>
</g>
</g>
</svg>

