<?xml version="1.0" encoding="UTF-8" standalone="no"?>
<!DOCTYPE svg PUBLIC "-//W3C//DTD SVG 1.1//EN"
 "http://www.w3.org/Graphics/SVG/1.1/DTD/svg11.dtd">
<!-- Generated by graphviz version 2.40.1 (20161225.0304)
 -->
<!-- Title: strobe Pages: 1 -->
<svg width="2024pt" height="1660pt"
 viewBox="0.00 0.00 2024.00 1660.00" xmlns="http://www.w3.org/2000/svg" xmlns:xlink="http://www.w3.org/1999/xlink">
<g id="graph0" class="graph" transform="scale(1 1) rotate(0) translate(4 1656)">
<title>strobe</title>
<polygon fill="#ffffff" stroke="transparent" points="-4,4 -4,-1656 2020,-1656 2020,4 -4,4"/>
<!-- incl1 -->
<g id="node1" class="node">
<title>incl1</title>
<polygon fill="none" stroke="#000000" points="1440,-1652 0,-1652 0,-1408 1440,-1408 1440,-1652"/>
<text text-anchor="middle" x="720" y="-1557" font-family="Arial" font-size="90.00" fill="#000000">Initial CMV transplant cohort</text>
<text text-anchor="middle" x="720" y="-1449" font-family="Arial" font-size="90.00" fill="#000000">(n = 64)</text>
</g>
<!-- mid1 -->
<!-- incl1&#45;&gt;mid1 -->
<g id="edge1" class="edge">
<title>incl1&#45;&gt;mid1</title>
<path fill="none" stroke="#000000" d="M720,-1407.8754C720,-1307.7979 720,-1182.0001 720,-1178.0933"/>
</g>
<!-- incl2 -->
<g id="node2" class="node">
<title>incl2</title>
<polygon fill="none" stroke="#000000" points="1440,-948 0,-948 0,-704 1440,-704 1440,-948"/>
<text text-anchor="middle" x="720" y="-853" font-family="Arial" font-size="90.00" fill="#000000">Age ≥ 30</text>
<text text-anchor="middle" x="720" y="-745" font-family="Arial" font-size="90.00" fill="#000000">(n = 63)</text>
</g>
<!-- mid2 -->
<!-- incl2&#45;&gt;mid2 -->
<g id="edge4" class="edge">
<title>incl2&#45;&gt;mid2</title>
<path fill="none" stroke="#000000" d="M720,-703.8754C720,-603.7979 720,-478.0001 720,-474.0933"/>
</g>
<!-- incl3 -->
<g id="node3" class="node">
<title>incl3</title>
<polygon fill="none" stroke="#000000" points="1440,-244 0,-244 0,0 1440,0 1440,-244"/>
<text text-anchor="middle" x="720" y="-149" font-family="Arial" font-size="90.00" fill="#000000">Recipient CMV positive</text>
<text text-anchor="middle" x="720" y="-41" font-family="Arial" font-size="90.00" fill="#000000">(n = 40)</text>
</g>
<!-- excl1 -->
<g id="node4" class="node">
<title>excl1</title>
<polygon fill="none" stroke="#000000" stroke-dasharray="5,2" points="2016,-1300 936,-1300 936,-1056 2016,-1056 2016,-1300"/>
<text text-anchor="middle" x="1476" y="-1205" font-family="Arial" font-size="90.00" fill="#000000">Excluded: Age &lt; 30</text>
<text text-anchor="middle" x="1476" y="-1097" font-family="Arial" font-size="90.00" fill="#000000">(n = 1)</text>
</g>
<!-- excl2 -->
<g id="node5" class="node">
<title>excl2</title>
<polygon fill="none" stroke="#000000" stroke-dasharray="5,2" points="2016,-596 936,-596 936,-352 2016,-352 2016,-596"/>
<text text-anchor="middle" x="1476" y="-501" font-family="Arial" font-size="90.00" fill="#000000">Excluded: CMV negative</text>
<text text-anchor="middle" x="1476" y="-393" font-family="Arial" font-size="90.00" fill="#000000">(n = 23)</text>
</g>
<!-- mid1&#45;&gt;incl2 -->
<g id="edge2" class="edge">
<title>mid1&#45;&gt;incl2</title>
<path fill="none" stroke="#000000" d="M720,-1177.9359C720,-1174.792 720,-1056.6446 720,-958.1059"/>
<polygon fill="#000000" stroke="#000000" points="723.5001,-958.0282 720,-948.0283 716.5001,-958.0283 723.5001,-958.0282"/>
</g>
<!-- mid1&#45;&gt;excl1 -->
<g id="edge3" class="edge">
<title>mid1&#45;&gt;excl1</title>
<path fill="none" stroke="#666666" d="M720.3691,-1178C788.8267,-1178 857.2842,-1178 925.7417,-1178"/>
<polygon fill="#666666" stroke="#666666" points="925.842,-1181.5001 935.842,-1178 925.842,-1174.5001 925.842,-1181.5001"/>
</g>
<!-- mid2&#45;&gt;incl3 -->
<g id="edge5" class="edge">
<title>mid2&#45;&gt;incl3</title>
<path fill="none" stroke="#000000" d="M720,-473.9359C720,-470.792 720,-352.6446 720,-254.1059"/>
<polygon fill="#000000" stroke="#000000" points="723.5001,-254.0282 720,-244.0283 716.5001,-254.0283 723.5001,-254.0282"/>
</g>
<!-- mid2&#45;&gt;excl2 -->
<g id="edge6" class="edge">
<title>mid2&#45;&gt;excl2</title>
<path fill="none" stroke="#666666" d="M720.3691,-474C788.8267,-474 857.2842,-474 925.7417,-474"/>
<polygon fill="#666666" stroke="#666666" points="925.842,-477.5001 935.842,-474 925.842,-470.5001 925.842,-477.5001"/>
</g>
</g>
</svg>

