<?xml version="1.0" encoding="UTF-8" standalone="no"?>
<!DOCTYPE svg PUBLIC "-//W3C//DTD SVG 1.1//EN"
 "http://www.w3.org/Graphics/SVG/1.1/DTD/svg11.dtd">
<!-- Generated by graphviz version 2.40.1 (20161225.0304)
 -->
<!-- Title: strobe Pages: 1 -->
<svg width="3104pt" height="2012pt"
 viewBox="0.00 0.00 3104.00 2012.00" xmlns="http://www.w3.org/2000/svg" xmlns:xlink="http://www.w3.org/1999/xlink">
<g id="graph0" class="graph" transform="scale(1 1) rotate(0) translate(4 2008)">
<title>strobe</title>
<polygon fill="#ffffff" stroke="transparent" points="-4,4 -4,-2008 3100,-2008 3100,4 -4,4"/>
<!-- incl1 -->
<g id="node1" class="node">
<title>incl1</title>
<polygon fill="none" stroke="#000000" points="2268,-2004 828,-2004 828,-1760 2268,-1760 2268,-2004"/>
<text text-anchor="middle" x="1548" y="-1909" font-family="Arial" font-size="90.00" fill="#000000">Initial CMV transplant cohort</text>
<text text-anchor="middle" x="1548" y="-1801" font-family="Arial" font-size="90.00" fill="#000000">(n = 64)</text>
</g>
<!-- mid1 -->
<!-- incl1&#45;&gt;mid1 -->
<g id="edge1" class="edge">
<title>incl1&#45;&gt;mid1</title>
<path fill="none" stroke="#000000" d="M1548,-1759.8754C1548,-1659.7979 1548,-1534.0001 1548,-1530.0933"/>
</g>
<!-- incl2 -->
<g id="node2" class="node">
<title>incl2</title>
<polygon fill="none" stroke="#000000" points="2268,-1300 828,-1300 828,-1056 2268,-1056 2268,-1300"/>
<text text-anchor="middle" x="1548" y="-1205" font-family="Arial" font-size="90.00" fill="#000000">Age ≥ 30</text>
<text text-anchor="middle" x="1548" y="-1097" font-family="Arial" font-size="90.00" fill="#000000">(n = 63)</text>
</g>
<!-- mid2 -->
<!-- incl2&#45;&gt;mid2 -->
<g id="edge4" class="edge">
<title>incl2&#45;&gt;mid2</title>
<path fill="none" stroke="#000000" d="M1548,-1055.8754C1548,-955.7979 1548,-830.0001 1548,-826.0933"/>
</g>
<!-- incl3 -->
<g id="node3" class="node">
<title>incl3</title>
<polygon fill="none" stroke="#000000" points="2268,-596 828,-596 828,-352 2268,-352 2268,-596"/>
<text text-anchor="middle" x="1548" y="-501" font-family="Arial" font-size="90.00" fill="#000000">Recipient CMV positive</text>
<text text-anchor="middle" x="1548" y="-393" font-family="Arial" font-size="90.00" fill="#000000">(n = 40)</text>
</g>
<!-- incl4 -->
<g id="node4" class="node">
<title>incl4</title>
<polygon fill="none" stroke="#000000" points="1440,-244 0,-244 0,0 1440,0 1440,-244"/>
<text text-anchor="middle" x="720" y="-149" font-family="Arial" font-size="90.00" fill="#000000">CGVHD value:0</text>
<text text-anchor="middle" x="720" y="-41" font-family="Arial" font-size="90.00" fill="#000000">(n = 22)</text>
</g>
<!-- incl3&#45;&gt;incl4 -->
<g id="edge7" class="edge">
<title>incl3&#45;&gt;incl4</title>
<path fill="none" stroke="#000000" d="M1261.0197,-351.9987C1182.1214,-318.4574 1096.4082,-282.0189 1016.9603,-248.244"/>
<polygon fill="#000000" stroke="#000000" points="1017.8757,-244.8301 1007.3035,-244.1387 1015.1371,-251.2721 1017.8757,-244.8301"/>
</g>
<!-- incl5 -->
<g id="node5" class="node">
<title>incl5</title>
<polygon fill="none" stroke="#000000" points="3096,-244 1656,-244 1656,0 3096,0 3096,-244"/>
<text text-anchor="middle" x="2376" y="-149" font-family="Arial" font-size="90.00" fill="#000000">CGVHD value:1</text>
<text text-anchor="middle" x="2376" y="-41" font-family="Arial" font-size="90.00" fill="#000000">(n = 18)</text>
</g>
<!-- incl3&#45;&gt;incl5 -->
<g id="edge8" class="edge">
<title>incl3&#45;&gt;incl5</title>
<path fill="none" stroke="#000000" d="M1834.9803,-351.9987C1913.8786,-318.4574 1999.5918,-282.0189 2079.0397,-248.244"/>
<polygon fill="#000000" stroke="#000000" points="2080.8629,-251.2721 2088.6965,-244.1387 2078.1243,-244.8301 2080.8629,-251.2721"/>
</g>
<!-- excl1 -->
<g id="node6" class="node">
<title>excl1</title>
<polygon fill="none" stroke="#000000" stroke-dasharray="5,2" points="2844,-1652 1764,-1652 1764,-1408 2844,-1408 2844,-1652"/>
<text text-anchor="middle" x="2304" y="-1557" font-family="Arial" font-size="90.00" fill="#000000">Excluded: Age &lt; 30</text>
<text text-anchor="middle" x="2304" y="-1449" font-family="Arial" font-size="90.00" fill="#000000">(n = 1)</text>
</g>
<!-- excl2 -->
<g id="node7" class="node">
<title>excl2</title>
<polygon fill="none" stroke="#000000" stroke-dasharray="5,2" points="2844,-948 1764,-948 1764,-704 2844,-704 2844,-948"/>
<text text-anchor="middle" x="2304" y="-853" font-family="Arial" font-size="90.00" fill="#000000">Excluded: CMV negative</text>
<text text-anchor="middle" x="2304" y="-745" font-family="Arial" font-size="90.00" fill="#000000">(n = 23)</text>
</g>
<!-- mid1&#45;&gt;incl2 -->
<g id="edge2" class="edge">
<title>mid1&#45;&gt;incl2</title>
<path fill="none" stroke="#000000" d="M1548,-1529.9359C1548,-1526.792 1548,-1408.6446 1548,-1310.1059"/>
<polygon fill="#000000" stroke="#000000" points="1551.5001,-1310.0282 1548,-1300.0283 1544.5001,-1310.0283 1551.5001,-1310.0282"/>
</g>
<!-- mid1&#45;&gt;excl1 -->
<g id="edge3" class="edge">
<title>mid1&#45;&gt;excl1</title>
<path fill="none" stroke="#666666" d="M1548.3691,-1530C1616.8267,-1530 1685.2842,-1530 1753.7417,-1530"/>
<polygon fill="#666666" stroke="#666666" points="1753.842,-1533.5001 1763.842,-1530 1753.842,-1526.5001 1753.842,-1533.5001"/>
</g>
<!-- mid2&#45;&gt;incl3 -->
<g id="edge5" class="edge">
<title>mid2&#45;&gt;incl3</title>
<path fill="none" stroke="#000000" d="M1548,-825.9359C1548,-822.792 1548,-704.6446 1548,-606.1059"/>
<polygon fill="#000000" stroke="#000000" points="1551.5001,-606.0282 1548,-596.0283 1544.5001,-606.0283 1551.5001,-606.0282"/>
</g>
<!-- mid2&#45;&gt;excl2 -->
<g id="edge6" class="edge">
<title>mid2&#45;&gt;excl2</title>
<path fill="none" stroke="#666666" d="M1548.3691,-826C1616.8267,-826 1685.2842,-826 1753.7417,-826"/>
<polygon fill="#666666" stroke="#666666" points="1753.842,-829.5001 1763.842,-826 1753.842,-822.5001 1753.842,-829.5001"/>
</g>
</g>
</svg>

